<svg width="46" height="46" viewBox="0 0 46 46" fill="none" xmlns="http://www.w3.org/2000/svg">
<path d="M15.9184 16.3189C14.99 15.6505 14.3123 15.1584 13.6346 14.6757C10.9051 12.7168 8.15716 10.7672 5.4463 8.78049C4.79644 8.30702 4.18371 7.72215 3.72881 7.07228C3.46886 6.68236 3.38531 5.98608 3.5617 5.5776C3.66382 5.33622 4.49936 5.20625 4.89856 5.3455C5.87335 5.67044 6.8203 6.11606 7.71154 6.62666C10.4874 8.23275 13.2354 9.89454 16.104 11.6028C16.364 9.89454 16.5868 8.19562 16.9024 6.51526C17.1438 5.21553 17.478 3.91581 17.8401 2.64393C18.0722 1.81768 18.5642 1.10283 19.5576 1.24209C20.5881 1.38135 20.9223 2.19832 20.9037 3.11741C20.8666 5.85611 20.7738 8.58553 20.7181 11.3242C20.6995 11.9741 20.7181 12.624 20.7181 13.2738C20.8202 13.3667 21.6929 12.5868 22.1013 12.1876C25.592 8.77121 29.0827 5.37336 32.6105 1.99407C33.1026 1.5206 33.7246 1.1214 34.3559 0.861455C34.6901 0.722199 35.3214 0.82432 35.5442 1.0657C35.767 1.30708 35.8134 1.93837 35.6556 2.2633C35.3585 2.88531 34.9129 3.45162 34.4394 3.96223C31.3294 7.37865 28.2008 10.7765 25.0814 14.1836C24.7379 14.555 24.3944 14.9449 23.8838 15.5112C26.2233 15.3441 28.3307 15.1584 30.4382 15.047C34.6808 14.8335 38.9328 14.6571 43.1755 14.4714C43.4354 14.4621 43.7139 14.4621 43.9367 14.5086C45.3943 14.8149 45.2643 16.2725 44.1688 16.4581C42.832 16.6902 41.4858 16.978 40.1304 17.1173C35.275 17.6001 30.4196 18.0271 25.5642 18.482C25.4621 18.4913 25.3692 18.5284 25.0629 18.612C26.3997 19.661 27.6345 20.6266 28.8692 21.5828C31.1994 23.4024 33.5575 25.1942 35.8506 27.0509C36.4633 27.5522 37.0018 28.2114 37.3917 28.8984C37.8094 29.6225 37.3731 30.2445 36.5747 30.0496C35.5999 29.7989 34.5973 29.3997 33.771 28.8334C29.7419 26.0854 25.7684 23.2539 21.7764 20.4502C21.3308 20.1345 20.8852 19.8189 20.2353 19.3454C20.0961 21.4528 19.9846 23.3467 19.8361 25.2406C19.3905 30.8758 18.9449 36.511 18.4807 42.1463C18.425 42.7683 18.3043 43.3996 18.1186 43.9937C17.868 44.8107 17.3109 45.3492 16.4104 45.2842C15.5656 45.2192 15.0735 44.6529 14.925 43.8545C14.7858 43.0932 14.7115 42.3134 14.7208 41.5428C14.7765 36.511 14.86 31.4885 14.9343 26.4567C14.9436 26.0854 14.9343 25.7233 14.9343 25.0828C14.5072 25.4912 14.2102 25.7605 13.9224 26.0483C10.7102 29.2604 7.49801 32.4819 4.27655 35.6941C3.91448 36.0561 3.506 36.4182 3.04181 36.6225C2.72616 36.7617 2.16914 36.7524 1.92776 36.5575C1.68638 36.3625 1.63068 35.8148 1.63068 35.4898C1.63997 34.4686 2.18771 34.0137 2.67046 33.4288C5.51129 29.9846 8.39853 26.5682 11.3043 23.1703C12.3534 21.9448 13.4953 20.8029 14.8415 19.3732C12.3256 19.661 10.1439 19.9396 7.9622 20.1438C5.86407 20.3388 3.76594 20.4594 1.65853 20.608C1.43572 20.6266 1.20363 20.5894 0.999387 20.5616C-0.0682437 20.4316 0.5352 19.299 0.841564 19.2247C2.94897 18.7048 5.07495 18.2035 7.21021 17.8136C9.74468 17.3772 15.3428 16.5139 15.9184 16.3189Z" fill="#F6F5AE"/>
</svg>
