<svg width="34" height="44" viewBox="0 0 34 44" fill="none" xmlns="http://www.w3.org/2000/svg">
<path d="M27.3303 10.9468C27.0983 13.2399 26.9311 15.1523 26.6991 17.0555C26.5691 18.0953 26.142 18.9958 24.9723 19.2465C23.9975 19.4507 22.9856 18.9122 22.4007 17.7146C21.8344 16.5635 21.4259 15.3287 20.9988 14.1125C19.7641 10.6219 17.8609 7.52108 15.5029 4.68954C14.7694 3.80758 14.0453 2.92563 13.2005 1.90442C13.0148 2.52643 12.8663 3.02775 12.7177 3.52907C11.1395 8.97863 10.601 14.5303 10.8424 20.1841C10.9167 22.013 10.7032 23.879 10.4432 25.6987C10.2761 26.8684 9.83977 28.0567 8.42864 28.3167C7.41671 28.5024 6.41407 27.6668 5.80134 26.1443C5.39285 25.1231 5.12362 24.0369 4.75227 22.9971C4.54803 22.4122 4.25095 21.8645 3.98172 21.2517C0.574587 25.3923 3.17404 39.0487 7.71379 41.0447C7.73236 37.3869 9.41271 34.3604 11.3994 31.501C14.2124 27.4533 15.7442 22.9785 16.2548 18.1138C16.292 17.7518 16.3662 17.3804 16.4312 17.0276C16.7469 15.3751 17.4246 15.1059 18.6593 16.3314C19.4577 17.1205 20.1633 18.0953 20.6275 19.1072C22.9298 24.0647 23.8861 29.2079 22.3264 34.6111C22.15 35.2052 21.7508 36.0408 22.0479 36.4678C22.5678 37.1177 23.3848 36.0036 23.5611 35.5487C24.0253 34.3511 24.3131 33.0978 24.6845 31.8631C24.9166 31.0925 25.0558 30.2477 25.4736 29.5793C25.7985 29.0594 26.5041 28.4188 26.9868 28.4652C27.4882 28.5116 28.1845 29.2265 28.3516 29.7835C29.577 33.9333 29.0014 37.7304 25.1765 40.9519C23.2084 42.6136 20.7853 43.1521 18.3065 43.477C15.5121 43.8391 12.7549 43.9505 9.95117 43.3099C8.61431 43.0036 7.22175 42.7993 6.41407 42.5022C5.60638 42.2052 4.91938 41.6017 4.59445 41.1004C0.463182 34.7225 -0.214531 28.001 2.69128 20.9547C3.29473 19.4971 4.45519 19.1908 5.47641 20.3976C6.22839 21.2889 6.65544 22.4865 7.12891 23.6005C7.45384 24.3804 7.63024 25.2252 7.85305 26.0422C8.13156 27.0634 8.54004 27.2212 8.81856 27.0448C9.16206 26.9427 9.3663 25.7079 9.32916 24.4732C9.26418 22.4401 9.30131 20.3976 9.08778 18.3831C8.46577 12.4786 9.90475 6.94549 12.0029 1.52378C12.5228 0.168355 13.1169 0.00124761 14.231 0.94819C18.7986 4.81951 22.0943 9.53566 23.589 15.403C23.8211 16.2942 23.8954 17.2969 25.028 18.0024C25.1394 17.139 25.2322 16.4242 25.3343 15.7186C25.5943 13.9733 25.7614 12.2094 26.1513 10.5012C26.3927 9.47067 27.1075 9.25714 27.8595 9.99984C28.8436 10.9746 29.8091 12.0516 30.4497 13.2677C32.8356 17.8168 33.6526 22.7557 33.634 27.8432C33.6154 31.8445 32.8727 35.7251 31.0346 39.2994C30.4126 40.5155 29.3635 41.5182 28.4722 42.5858C28.073 43.0686 27.1632 42.9107 27.581 41.8338C27.6181 41.741 27.6646 41.6296 27.7295 41.5367C31.1831 36.9041 31.5266 31.4824 31.573 26.0236C31.6102 21.6695 30.9789 17.399 28.9457 13.4627C28.5187 12.655 27.9709 11.9309 27.3303 10.9468ZM26.829 29.9878C26.2813 31.8074 25.8542 33.3113 25.3622 34.806C24.9723 35.9851 24.3781 37.0527 23.2084 37.6376C21.8529 38.3246 20.5346 37.5633 20.4604 36.0408C20.4325 35.4187 20.4604 34.7782 20.5811 34.1747C21.528 29.3286 21.0824 24.631 19.1885 20.0727C18.8636 19.2929 18.3901 18.578 17.9166 17.7239C17.7495 18.0024 17.6288 19.0144 17.6103 19.4507C17.4896 22.7557 17.1182 26.0236 15.3822 28.9387C14.3424 30.6747 13.1726 32.3365 12.04 34.0262C10.7867 35.9108 9.67266 37.8604 9.26418 40.1256C8.98566 41.676 9.10635 41.7503 10.5918 42.1309C13.7389 42.9293 16.8211 42.4187 19.8941 41.806C23.394 41.1097 25.5757 38.8073 26.8754 35.6323C27.5903 33.8962 27.3861 32.0952 26.829 29.9878Z" fill="#CF9893"/>
</svg>
