<svg width="189" height="190" viewBox="0 0 189 190" fill="none" xmlns="http://www.w3.org/2000/svg">
<g clip-path="url(#clip0_5_3665)">
<path d="M39.141 143.898C34.7206 137.907 30.3216 145.964 32.3377 150.622C33.1423 152.481 33.2201 154.72 35.3574 155.347C36.0188 155.541 36.6092 156.337 37.3402 156.337C38.5728 156.337 39.0311 156.038 40.1233 155.665" stroke="#4D4D4D" stroke-width="2.05671" stroke-linecap="round" stroke-linejoin="round"/>
<path d="M40.7782 156.673C41.6767 161.401 42.0255 166.576 44.3072 170.793C46.0338 173.984 49.5701 177.069 53.2024 177.536C55.5639 177.839 57.5055 178.502 59.9511 177.928C61.8288 177.487 63.5484 176.707 65.3719 176.172C66.8814 175.729 68.1889 174.649 69.2647 173.483C70.6392 171.993 71.1988 170.047 72.2844 168.515C73.0193 167.477 73.1939 165.152 73.1939 163.883C73.1939 162.184 73.5213 160.652 73.5213 158.952C73.5213 155.283 72.2116 151.733 72.2116 148.101C72.2116 147.038 71.6171 146.023 71.5567 144.907C71.4777 143.446 71.1426 141.513 70.8837 140.051C70.6448 138.702 70.247 137.3 70.247 135.905C70.247 133.605 69.3754 135.906 68.2824 135.158" stroke="#4D4D4D" stroke-width="2.05671" stroke-linecap="round" stroke-linejoin="round"/>
<path d="M36.1939 139.192C35.3926 136.209 35.9646 133.074 34.7205 130.264C33.9653 128.558 34.8413 125.968 35.1389 124.287C35.3534 123.076 35.2116 121.763 35.2116 120.533C35.2116 119.469 36.0222 118.869 36.1757 117.844C36.3239 116.855 35.7709 115.852 34.8842 115.397C34.0307 114.959 34.422 115.239 35.0297 114.65C35.3709 114.319 36.6647 113.736 36.5032 113.156C36.3926 112.758 35.8842 112.936 37.2126 112.633C38.315 112.381 39.7039 111.288 40.778 111.288C41.9167 111.288 42.616 111.047 43.7976 110.616C45.0803 110.148 45.6749 111.391 46.5262 111.232C47.533 111.044 48.2809 109.645 49.4367 109.645C49.5614 109.645 50.0801 110.257 50.6737 110.28C51.5795 110.314 52.6374 110.926 53.5478 110.541C54.154 110.285 53.6422 111.441 54.3664 111.606C55.9799 111.974 57.5489 110.324 58.9504 109.794C60.2977 109.284 59.7259 109.837 59.3688 110.616C59.1441 111.106 62.078 111.108 62.6431 111.214C64.1623 111.497 63.4341 111.403 62.5703 112.129C61.4158 113.099 63.0963 113.305 63.8801 113.305C65.4558 113.305 65.0527 113.191 65.0079 114.389C64.9602 115.662 65.2288 115.549 65.9902 116.331C66.5012 116.856 66.5477 117.691 67.1362 118.161C67.6996 118.611 68.9373 117.675 68.5732 118.89C68.2155 120.084 67.3775 121.089 67.0452 122.308C66.8292 123.1 68.5442 122.988 68.937 123.391C69.98 124.462 68.8574 124.851 68.6278 125.912C68.4508 126.73 69.0731 126.989 69.2463 127.612C69.4489 128.34 68.2856 128.673 68.6824 129.442C69.1143 130.28 69.2668 130.111 68.6096 131.123" stroke="#4D4D4D" stroke-width="2.05671" stroke-linecap="round" stroke-linejoin="round"/>
<path d="M32.9198 115.323C32.1905 115.761 29.6502 117.081 31.6101 118.087C32.4295 118.507 31.4253 117.943 31.6282 119.506C31.8681 121.354 32.4226 121.136 31.1189 122.887C30.0692 124.296 31.0678 124.911 30.3731 126.417C29.9785 127.272 29.681 128.42 29.6455 129.368C29.5902 130.844 32.8547 131.465 32.0648 132.636C31.7222 133.144 30.7261 133.858 30.7733 134.56C30.8488 135.684 32.6636 136.813 33.3745 137.511C33.7238 137.854 34.7317 138.762 34.1567 139.192C33.5042 139.679 34.1579 139.631 34.4842 140.2C34.7537 140.671 35.3937 141.545 35.3937 141.545C35.3937 141.545 35.0826 139.133 34.6843 137.996C34.3293 136.984 33.7376 136.27 33.0653 135.494C32.8006 135.188 33.5694 134.843 33.7566 134.616C35.0781 133.012 35.503 128.733 33.2472 127.575C32.8403 127.366 33.3793 128.595 33.7384 128.882C34.4109 129.419 34.5136 126.536 34.4842 126.267C34.3056 124.64 33.7399 123.561 32.6287 122.42C31.8694 121.64 32.1218 121.796 32.938 121.691C33.976 121.558 35.2037 120.452 34.0658 119.544C33.2684 118.907 34.4113 121.897 34.8844 122.382" stroke="#4D4D4D" stroke-width="2.05671" stroke-linecap="round" stroke-linejoin="round"/>
<path d="M38.4859 141.209C38.9566 141.827 39.7202 142.332 40.1231 142.964C40.4929 143.545 40.4766 144.288 40.7779 144.907C41.5389 146.469 42.0877 143.86 42.0877 143.151C42.0877 142.541 41.4769 140.038 40.8507 141.806C40.7105 142.202 41.0991 141.088 41.1054 140.798C41.1283 139.739 41.1019 138.676 40.7779 137.66C40.2631 136.045 39.0004 134.154 37.8311 132.953C37.5377 132.652 38.409 133.643 38.8134 133.738C39.7192 133.95 40.1076 133.311 40.1231 132.468C40.1339 131.878 38.8399 127.049 37.5764 128.508C37.5165 128.577 39.7957 129.564 39.7957 127.593C39.7957 126.776 38.3033 125.713 39.7957 126.734C41.2449 127.726 43.0053 126.764 43.8522 125.427C44.9368 123.713 42.8305 123.444 44.5616 125.221C46.1261 126.828 48.5124 125.798 49.7459 124.25C50.0625 123.853 51.2892 125.437 52.5655 125.203C53.2506 125.077 55.6668 123.253 56.1672 123.895C57.7016 125.864 60.9884 125.489 63.0433 125.408C63.8334 125.377 67.2867 122.953 65.9901 122.121C65.1806 121.601 64.9975 124.016 66.3176 122.98C68.1288 121.558 67.0589 119.674 65.6627 118.61C64.2518 117.533 65.8496 118.328 65.59 116.929C65.2562 115.13 63.1387 112.614 61.1514 113.866C58.5308 115.517 62.2429 117.214 62.2429 115.173C62.2429 112.461 57.2729 111.35 55.4032 112.371C53.5366 113.391 56.2333 113.523 55.2759 113.119C54.0551 112.602 52.6204 112.395 51.3103 112.315C50.7833 112.284 49.7548 112.51 49.3093 112.129C48.6353 111.552 47.0111 111.054 46.1624 110.784C43.2362 109.851 43.5866 112.5 44.6889 114.575C45.7448 116.563 41.2984 115.317 40.4687 115.192C38.2451 114.856 36.9254 117.975 39.2681 117.975C40.138 117.975 39.4686 117.606 39.0862 117.508C37.858 117.192 36.7735 117.69 35.8847 118.572C33.8563 120.585 34.682 124.988 38.0857 123.876C39.2548 123.495 37.8569 122.793 37.2853 122.793C35.5361 122.793 33.3935 123.897 32.8105 125.669C31.7314 128.949 39.851 124.767 40.7779 123.989C41.395 123.47 42.0561 122.934 41.2873 122.308C40.6828 121.815 38.8418 120.664 39.6137 120.664C40.0485 120.664 41.8394 122.335 42.4151 122.569C43.3594 122.952 45.0121 123.426 45.8713 122.569C47.8723 120.573 43.9602 119.647 44.125 120.104C45.3613 123.531 51.4385 121.495 53.3295 120.104C54.0626 119.564 54.1355 118.668 53.0748 119.245C51.9226 119.871 50.9761 121.362 51.474 122.718C52.6508 125.925 59.8232 124.31 60.3511 121.262C60.5139 120.321 58.818 119.895 58.2046 120.253C56.6331 121.17 58.0001 122.922 59.2232 123.148C62.4218 123.739 67.9776 119.93 63.0251 117.75C61.952 117.278 59.9528 117.019 59.1869 118.199C58.2492 119.643 61.0618 119.576 61.7154 119.45C67.419 118.352 60.7148 115.123 58.9868 114.146C57.5983 113.36 54.0828 111.041 55.3123 114.575C55.469 115.026 54.5113 113.66 54.3481 113.492C53.3974 112.516 52.0492 111.79 50.7464 111.512C49.2063 111.184 47.2748 111.188 46.1078 112.446C45.3405 113.273 46.2674 113.554 46.9991 113.623C47.2469 113.646 48.7402 113.699 48.0724 113.119C47.0882 112.263 45.6051 112.269 44.3979 112.129C43.5132 112.025 41.5105 111.735 41.1963 113.025C40.8703 114.364 42.1048 116.529 43.1427 117.265C44.2562 118.054 43.3077 117.342 42.6698 117.078C41.6633 116.661 40.0551 116.124 38.9589 116.406C37.6587 116.739 40.5528 117.897 40.7052 117.937C42.9089 118.514 45.5038 118.121 47.6176 117.34C48.1278 117.151 50.2714 116.122 49.5458 115.248C49.2648 114.909 48.3522 114.336 48.0542 114.986C47.3051 116.621 52.8764 115.853 53.475 115.472C54.0858 115.083 51.0556 114.14 51.474 116.331C51.9263 118.699 55.736 118.747 57.0767 117.265C58.43 115.768 55.8297 115.576 56.6402 116.929C57.5614 118.466 58.2828 116.716 55.9489 116.163C52.4623 115.337 50.2252 116.83 46.89 117.302C44.6114 117.625 44.8055 118.629 43.3974 120.178C42.0164 121.698 40.6782 121.038 39.159 121.915C37.6747 122.773 38.6464 126.611 38.4677 128.079C38.2962 129.488 35.5709 128.408 35.1025 130.469C34.8236 131.696 35.6509 132.996 36.5395 133.757C36.9494 134.107 38.3538 134.344 38.5769 134.802C38.878 135.421 37.215 134.709 36.5577 134.859C35.6862 135.057 35.8582 136.327 36.0484 136.969C36.6001 138.83 37.8381 140.244 38.1585 142.217" stroke="#4D4D4D" stroke-width="2.05671" stroke-linecap="round" stroke-linejoin="round"/>
<path d="M38.8135 151.294C38.1446 150.35 37.7868 149.817 37.8312 148.679C37.8601 147.938 38.2754 148.351 37.6856 147.746C37.2382 147.286 36.2131 147.221 35.8666 147.932" stroke="#4D4D4D" stroke-width="2.05671" stroke-linecap="round" stroke-linejoin="round"/>
<path d="M47.9817 139.864C49.028 138.489 50.2325 138.056 51.8381 137.585C52.7049 137.331 54.3327 137.441 54.2029 137.174" stroke="#4D4D4D" stroke-width="2.05671" stroke-linecap="round" stroke-linejoin="round"/>
<path d="M64.0259 136.502C65.3484 136.237 66.8525 135.769 67.9551 136.838C68.3465 137.218 70.3926 138.183 69.2648 138.183" stroke="#4D4D4D" stroke-width="2.05671" stroke-linecap="round" stroke-linejoin="round"/>
<path d="M53.5481 144.234C53.5481 144.234 53.5482 144.234 53.5482 144.234" stroke="#4D4D4D" stroke-width="2.05671" stroke-linecap="round" stroke-linejoin="round"/>
<path d="M66.3176 143.898C66.3177 143.898 66.3177 143.898 66.3177 143.898" stroke="#4D4D4D" stroke-width="2.05671" stroke-linecap="round" stroke-linejoin="round"/>
<path d="M60.7515 141.545C60.7515 145.694 63.6431 149.667 64.6989 153.461C65.1483 155.076 64.5669 155.329 62.8798 155.329C61.2372 155.329 60.3981 155.2 59.4418 156.673" stroke="#4D4D4D" stroke-width="2.05671" stroke-linecap="round" stroke-linejoin="round"/>
<path d="M112.63 102.588C110.478 101.032 109.143 101.242 107.18 103.06C105.347 104.758 104.756 107.906 106.404 109.929C108.96 113.068 114.74 112.12 116.636 108.827C117.556 107.228 117.275 108.473 117.881 108.963C119.389 110.183 120.165 110.274 121.68 108.838C123.502 107.111 124.982 100.147 120.49 101.066C119.99 101.168 118.387 102.279 119.142 102.124C120.14 101.92 120.12 100.69 119.872 99.9148C119.21 97.8471 116.318 96.8386 114.497 97.607C113.136 98.1812 112.79 99.8519 111.695 100.484C110.637 101.095 106.442 104.672 109.691 104.284" stroke="#4D4D4D" stroke-width="1.71392" stroke-linecap="round" stroke-linejoin="round"/>
<path d="M86.5077 112.332C84.8468 112.008 82.8901 111.524 82.4705 113.78C82.1584 115.457 83.8727 117.564 85.6507 117.284C86.2706 117.186 88.3131 116.233 88.7168 116.636C89.7308 117.65 90.3422 116.481 90.9639 115.494C91.6898 114.341 90.5908 110.631 89.0786 110.295C88.1178 110.081 84.3281 112.785 84.7938 113.018" stroke="#4D4D4D" stroke-width="1.71392" stroke-linecap="round" stroke-linejoin="round"/>
<path d="M114.001 48.6949C115.88 46.2546 119.266 43.7012 122.576 43.8854C124.051 43.9674 124.772 47.2876 125.244 48.3514C126.919 52.1244 118.485 52.6159 120.175 56.4246C120.496 57.1475 121.458 57.4207 122.081 57.8178C123.403 58.6607 123.605 58.2632 123.605 56.9399C123.605 55.9156 121.386 53.2517 122.576 52.5502C125.808 50.6465 125.112 45.6031 121.033 45.6031C117.898 45.6031 113.315 46.1794 113.315 50.2409C113.315 52.2649 115.026 51.6692 115.868 50.5844C116.885 49.2747 117.609 47.6643 119.489 47.6643C120.81 47.6643 123.396 47.1538 123.605 49.0385C123.641 49.3582 124.33 50.8752 124.215 51.0234C123.738 51.6376 123.261 52.5635 122.919 53.3327C122.347 54.6224 120.518 54.4521 120.518 56.081C120.518 57.169 120.577 57.3569 121.204 58.1423C121.412 58.4021 122.624 59.096 122.233 58.314" stroke="#F6F5AE" stroke-width="2.05671" stroke-linecap="round" stroke-linejoin="round"/>
<path d="M124.635 63.1235C124.707 65.982 126.104 64.2317 125.055 63.3908C124.36 62.834 124.165 64.3582 124.978 64.7653C125.892 65.2227 125.681 62.9166 125.398 63.1999C124.662 63.9369 126.224 65.9267 124.635 65.5289" stroke="#F6F5AE" stroke-width="2.05671" stroke-linecap="round" stroke-linejoin="round"/>
<path d="M106.562 18.5777C102.095 12.8686 94.3056 14.6351 89.4998 19.0912C84.8202 23.4303 81.9442 34.3113 86.2593 39.7148C87.4595 41.2178 88.5166 42.8876 89.9319 44.1938C90.4368 44.6598 88.6354 44.677 87.9561 44.7779C85.8537 45.09 84.8183 47.3628 85.3927 49.3191C85.6939 50.3453 86.5359 51.0506 87.5519 51.2804C88.2528 51.439 88.4064 51.6866 87.6004 51.7672C85.7108 51.9564 84.3661 52.0577 83.0706 53.6429C81.1581 55.9831 82.0218 58.0041 84.288 59.5266C86.5789 61.0657 86.1558 61.7443 84.0234 63.03C82.3337 64.0488 81.6994 66.1162 81.1144 67.9745C80.1025 71.1887 78.6613 76.0335 81.5079 78.6116C85.072 81.8395 90.4076 81.9645 94.8406 81.1405C96.3134 80.8667 98.0667 80.7415 99.2176 79.6664C99.5283 79.3762 100.372 78.3358 99.487 78.1469C97.9096 77.81 97.3375 80.6382 97.2554 81.6188C96.6735 88.5689 107.05 90.9418 112.056 90.0766C115.307 89.5146 118.152 87.9445 120.706 85.9097C122.716 84.3084 125.544 82.532 126.875 80.2525C127.518 79.1526 127.283 80.4358 127.66 81.4383C128.561 83.837 131.163 83.3775 133.125 82.7879C135.775 81.9911 138.15 80.2872 139.751 78.0157C139.985 77.6828 141.17 75.482 141.369 75.7817C143.802 79.4489 145.258 74.2892 147.338 73.042C147.687 72.8332 148.338 75.2043 148.539 75.5909C150.058 78.513 151.642 81.1384 155.069 81.9966C162.404 83.8336 170.085 80.7238 175.159 75.438C177.296 73.2118 178.475 70.1343 175.77 67.668C175.115 67.0714 177.179 67.7623 177.565 67.7342C179.686 67.5798 182.757 67.313 184.301 65.6553C186.061 63.7659 187.01 62.0905 186.313 59.4484C185.826 57.6005 184.757 56.5027 183.005 55.8109C182.234 55.5066 180.682 55.45 181.811 54.7364C182.943 54.0202 183.47 52.2146 183.572 50.9427C183.733 48.9354 182.355 47.5682 180.573 46.888C179.769 46.5813 177.298 46.8996 177.712 46.8582C179.087 46.7206 179.844 41.3283 179.741 40.2985C179.285 35.7214 174.701 32.155 170.052 32.453C169.281 32.5024 168.492 32.9604 169.076 32.1643C169.746 31.2505 169.78 29.6119 170.049 28.5549C171.563 22.602 169.118 17.5729 164.472 13.7656C160.649 10.6319 154.76 8.90852 150.159 11.0714C149.862 11.2112 147.93 13.4544 148.514 13.3959C149.405 13.3067 149.12 11.1667 148.999 10.6958C148.432 8.48911 145.836 6.65988 143.941 5.68816C141.151 4.25645 137.112 4.75006 134.179 5.55883C131.595 6.27157 129.647 7.95759 128.314 10.2198C127.607 11.4185 128.206 12.4201 127.331 11.6176C125.912 10.3162 125.391 9.46359 123.172 9.64564C120.557 9.86018 118.171 10.545 116.095 12.1801C115.031 13.0173 114.08 14.8344 114.219 16.231C114.221 16.2524 113.927 14.9081 113.719 14.3846C112.602 11.5638 108.862 11.6597 106.878 13.6469C106.041 14.4841 105.563 15.7578 105.469 16.9311C105.419 17.5448 105.076 19.4981 104.906 17.7952" stroke="#4D4D4D" stroke-width="1.71392" stroke-linecap="round" stroke-linejoin="round"/>
<path d="M133.493 28.7712C132.99 25.8891 136.17 25.5706 138.449 24.9922C140.257 24.5331 141.979 24.1512 143.709 25.1449C144.834 25.7914 146.416 27.4483 146.51 28.7712C146.861 33.6934 142.554 36.6726 137.82 36.6726C135.837 36.6726 135.912 40.2418 135.895 41.4821C135.867 43.4857 135.396 45.4228 135.628 47.4368C135.692 47.9909 136.02 51.0474 136.924 50.0134C138.42 48.3005 138.639 44.6575 138.639 42.5127C138.639 40.4705 138.069 38.6891 140.183 37.875C142.053 37.1547 144.326 36.3274 145.576 34.6113C147.374 32.1449 147.726 28.713 145.824 26.2137C144.217 24.1017 139.722 24.0071 137.267 23.9616C134.048 23.9019 132.57 25.7558 130.94 28.4276C129.964 30.0268 130.456 32.7189 132.807 32.1302C135.32 31.5012 137.068 30.0392 138.83 28.2749C139.772 27.331 142.389 27.977 143.442 28.504C144.695 29.1313 143.947 31.297 143.594 32.2066C142.181 35.8456 137.483 35.7244 136.314 39.001C135.431 41.4763 135.552 44.0279 135.552 46.6161C135.552 47.4155 135.033 49.9964 136.581 49.3072C139.533 47.9931 138.15 42.4055 138.296 39.7644C138.38 38.2511 140.378 38.0348 141.384 37.5314C142.6 36.9224 144.285 35.1373 144.89 33.9243C145.712 32.278 145.862 29.7682 144.642 28.2749C143.122 26.4137 140.538 27.5537 138.982 26.3664C137.631 25.3351 134.79 28.8467 133.837 29.8018C133.462 30.1773 133.042 30.5067 132.636 30.8324C132.451 30.9803 131.913 32.0539 131.778 32.0539C131.355 32.0539 132.276 31.3506 132.617 31.0996C133.766 30.2533 134.845 29.2874 135.685 28.1223C136.621 26.8248 138.137 27.397 139.668 27.397C140.548 27.397 142.535 27.015 143.27 27.5879C144.385 28.456 144.791 29.237 143.099 29.8018" stroke="#F6F5AE" stroke-width="2.05671" stroke-linecap="round" stroke-linejoin="round"/>
<path d="M137.267 55.5674C132.263 56.6949 139.493 58.7455 138.563 55.8347C138.247 54.8468 136.836 55.203 137.286 56.2546C137.484 56.7178 139.289 57.5023 137.61 56.9419" stroke="#F6F5AE" stroke-width="2.05671" stroke-linecap="round" stroke-linejoin="round"/>
<path d="M157.939 66.4403C160.293 66.4403 163.346 65.8908 165.634 66.5592C166.971 66.9496 167.679 67.7989 168.639 68.6998C169.775 69.7668 171.134 71.1901 170.966 72.8741C170.761 74.9285 168.114 75.9389 166.465 76.4894C164.112 77.275 160.981 77.1307 158.533 76.7629C156.603 76.473 153.187 75.8642 152.429 73.6709C151.813 71.8886 153.142 70.9355 154.661 70.5075C157.011 69.8456 159.471 69.3264 161.882 68.9615C163.05 68.7846 165.704 68.003 166.869 68.795C167.358 69.1269 167.85 70.5767 167.962 71.1378C168.142 72.0393 167.663 72.5397 166.905 72.9573C165.243 73.8728 163.219 74.2966 161.395 73.6114C158.975 72.7028 162.056 70.6123 163.402 70.5194C164.987 70.4099 165.594 71.0431 166.157 72.5292C166.554 73.5795 166.543 74.2382 165.219 74.3487C163.643 74.4802 162.002 74.3438 160.504 73.8374C158.172 73.0488 155.145 71.6704 153.545 69.6988C152.8 68.7803 152.809 67.5516 152.809 66.4403C152.809 64.5971 152.824 64.7464 154.923 64.7278C158.551 64.6955 162.171 64.5137 165.8 64.5137C166.937 64.5137 167.991 64.3978 169.007 64.9894C169.706 65.3967 169.733 65.5713 169.695 66.3689C169.559 69.2399 166.379 69.9734 164.138 70.7215" stroke="#4D4D4D" stroke-width="1.02835" stroke-linecap="round"/>
<path d="M94.4537 40.1104C94.1207 38.4008 93.0501 36.8323 92.4112 35.1869C91.8553 33.7555 91.6749 31.8975 91.6749 30.3586C91.6749 27.4158 92.088 24.2372 94.715 22.3431C96.7273 20.8921 100.425 20.1889 102.41 22.1766C104.34 24.1092 104.047 27.1527 104.607 29.6212C105.19 32.1907 103.901 36.1881 101.08 36.9826C100.161 37.2415 97.8097 37.8241 97.1257 36.8756C96.1336 35.5 95.806 33.4348 95.3563 31.8332C94.8731 30.113 93.1676 25.994 95.9382 25.1616C99.3792 24.1278 100.817 29.8185 101.033 32.1424C101.159 33.5051 101.264 34.7069 100.344 35.7815C99.9605 36.2294 98.2878 37.473 97.7669 36.6616C97.0441 35.5355 96.5169 30.1322 98.0876 30.0494C98.4579 30.0299 99.5298 29.8883 99.7501 30.2634C100.147 30.9394 99.664 32.0091 99.0376 32.2851C97.8062 32.8278 97.4463 32.7496 97.4463 31.4408C97.4463 30.2488 97.9621 29.3465 99.3226 29.9304C99.9927 30.2181 100.07 31.5346 100.178 32.1187C100.517 33.9595 100.439 35.8451 100.439 37.7081C100.439 40.5849 98.2893 42.1622 96.3775 44.1776" stroke="#4D4D4D" stroke-width="1.02835" stroke-linecap="round"/>
<path d="M95.7348 75.859C93.2065 75.859 90.9851 76.0662 88.895 74.5271C87.4658 73.4746 86.9713 72.4718 86.9713 70.6739C86.9713 69.3974 87.1157 68.3703 88.04 67.3916C88.899 66.4822 89.6823 66.4577 90.8899 66.1786C91.3354 66.0757 94.4881 65.2078 94.8323 66.0121C95.3357 67.1884 94.6672 69.1953 94.0248 70.1982C93.3125 71.3104 92.6834 72.4044 91.4599 73.0286C91.1879 73.1674 89.1453 73.9493 89.1087 73.2903C89.0403 72.0559 89.2179 71.1353 89.9637 70.1269C90.412 69.5208 92.1044 69.8325 92.7424 69.8653C95.0543 69.984 94.0225 75.7395 91.5074 73.1238C90.9674 72.5621 90.8819 71.4406 91.2699 70.7929C92.6838 68.4329 95.1971 67.4128 97.6585 66.6543" stroke="#4D4D4D" stroke-width="1.02835" stroke-linecap="round"/>
<path d="M172.046 45.462C173.179 44.7707 174.184 43.8984 174.184 42.4651C174.184 41.5483 174.412 40.6377 173.638 40.0034C173.069 39.5376 168.706 37.7988 168.627 39.4682C168.571 40.6282 168.627 41.8033 168.627 42.9646C168.627 44.2282 169.968 43.9791 170.93 43.9636C172.716 43.9347 172.935 42.5956 172.248 40.9905C171.879 40.1268 170.629 39.5195 170.147 40.8478C169.895 41.5409 173.354 40.9667 170.978 40.9667" stroke="#4D4D4D" stroke-width="1.02835" stroke-linecap="round"/>
<path d="M178.655 61.7928C179.126 61.7928 180.453 61.6308 180.612 62.346C180.753 62.9792 180.524 63.3493 180.066 63.7053C179.064 64.486 176.43 64.1065 177.018 62.3938C177.436 61.1753 178.67 60.3657 179.951 60.3173C180.259 60.3057 180.641 60.2099 180.803 60.5018C180.96 60.7845 180.877 61.3436 180.742 61.6152C180.352 62.3963 179.621 63.067 178.805 63.1725C177.661 63.3203 174.972 63.8476 174.972 62.1616" stroke="#4D4D4D" stroke-width="1.02835" stroke-linecap="round"/>
</g>
<defs>
<clipPath id="clip0_5_3665">
<rect width="188.531" height="188.531" fill="white" transform="translate(0.165405 0.591553)"/>
</clipPath>
</defs>
</svg>
