<svg width="224" height="407" viewBox="0 0 224 407" fill="none" xmlns="http://www.w3.org/2000/svg">
<path d="M-71.9527 58.5438C-71.9527 90.427 -59.6227 144.188 -106.183 202.306C-151.661 259.072 -89.0955 79.3188 -26.2604 68.193C47.1897 55.1877 -79.3938 356.321 -85.9208 295.036C-89.5724 260.75 16.6718 80.7894 46.5568 110.674C84.5743 148.692 -15.1145 365.843 -38.3921 362.272C-79.4571 355.971 67.4131 106.188 109.087 127.701C158.78 153.353 76.8718 324.543 38.8649 333.726C8.45934 341.071 121.863 175.169 197.75 213.138" stroke="#77878B" stroke-width="5.48455" stroke-linecap="round"/>
<path d="M202.888 199.797C203.629 198.471 205.657 199.155 205.443 200.659L205.048 203.43C204.919 204.333 205.691 205.107 206.594 204.982L217.367 203.488C218.82 203.286 219.532 205.201 218.3 205.998L210.294 211.174C209.366 211.774 209.493 213.171 210.516 213.593L215.965 215.843C217.218 216.36 217.041 218.187 215.712 218.454L212.145 219.171C211.34 219.333 210.856 220.162 211.113 220.943L212.125 224.024C212.512 225.201 211.262 226.247 210.172 225.659L205.822 223.314C204.706 222.712 203.442 223.817 203.889 225.004L206.281 231.356C206.8 232.734 205.077 233.85 204.032 232.813L197.27 226.106C196.834 225.674 196.164 225.584 195.629 225.886L188.006 230.199C186.736 230.917 185.371 229.418 186.207 228.221L190.696 221.786C191.107 221.197 190.994 220.391 190.437 219.938L182.61 213.566C181.609 212.752 182.185 211.132 183.475 211.132H189.506C190.187 211.132 190.765 210.631 190.863 209.956L191.808 203.4C192.013 201.983 193.981 201.789 194.458 203.139L195.99 207.475C196.383 208.588 197.904 208.717 198.48 207.687L202.888 199.797Z" fill="#F6F5AE"/>
</svg>
