<svg width="20" height="20" viewBox="0 0 20 20" fill="none" xmlns="http://www.w3.org/2000/svg">
<rect x="1.25" y="1.25" width="17.5" height="17.5" rx="8.75" fill="url(#paint0_radial_156_329)"/>
<rect x="1.25" y="1.25" width="17.5" height="17.5" rx="8.75" fill="url(#paint1_radial_156_329)"/>
<rect x="1.25" y="1.25" width="17.5" height="17.5" rx="8.75" fill="url(#paint2_radial_156_329)"/>
<path d="M13.5 7.25C13.5 7.66421 13.1642 8 12.75 8C12.3358 8 12 7.66421 12 7.25C12 6.83579 12.3358 6.5 12.75 6.5C13.1642 6.5 13.5 6.83579 13.5 7.25Z" fill="#B7D5D4"/>
<path fill-rule="evenodd" clip-rule="evenodd" d="M10 12.5C11.3807 12.5 12.5 11.3807 12.5 10C12.5 8.61929 11.3807 7.5 10 7.5C8.61929 7.5 7.5 8.61929 7.5 10C7.5 11.3807 8.61929 12.5 10 12.5ZM10 11.5C10.8284 11.5 11.5 10.8284 11.5 10C11.5 9.17157 10.8284 8.5 10 8.5C9.17157 8.5 8.5 9.17157 8.5 10C8.5 10.8284 9.17157 11.5 10 11.5Z" fill="#B7D5D4"/>
<path fill-rule="evenodd" clip-rule="evenodd" d="M5 9.8C5 8.11984 5 7.27976 5.32698 6.63803C5.6146 6.07354 6.07354 5.6146 6.63803 5.32698C7.27976 5 8.11984 5 9.8 5H10.2C11.8802 5 12.7202 5 13.362 5.32698C13.9265 5.6146 14.3854 6.07354 14.673 6.63803C15 7.27976 15 8.11984 15 9.8V10.2C15 11.8802 15 12.7202 14.673 13.362C14.3854 13.9265 13.9265 14.3854 13.362 14.673C12.7202 15 11.8802 15 10.2 15H9.8C8.11984 15 7.27976 15 6.63803 14.673C6.07354 14.3854 5.6146 13.9265 5.32698 13.362C5 12.7202 5 11.8802 5 10.2V9.8ZM9.8 6H10.2C11.0566 6 11.6389 6.00078 12.089 6.03755C12.5274 6.07337 12.7516 6.1383 12.908 6.21799C13.2843 6.40973 13.5903 6.71569 13.782 7.09202C13.8617 7.24842 13.9266 7.47262 13.9624 7.91104C13.9992 8.36113 14 8.94342 14 9.8V10.2C14 11.0566 13.9992 11.6389 13.9624 12.089C13.9266 12.5274 13.8617 12.7516 13.782 12.908C13.5903 13.2843 13.2843 13.5903 12.908 13.782C12.7516 13.8617 12.5274 13.9266 12.089 13.9624C11.6389 13.9992 11.0566 14 10.2 14H9.8C8.94342 14 8.36113 13.9992 7.91104 13.9624C7.47262 13.9266 7.24842 13.8617 7.09202 13.782C6.71569 13.5903 6.40973 13.2843 6.21799 12.908C6.1383 12.7516 6.07337 12.5274 6.03755 12.089C6.00078 11.6389 6 11.0566 6 10.2V9.8C6 8.94342 6.00078 8.36113 6.03755 7.91104C6.07337 7.47262 6.1383 7.24842 6.21799 7.09202C6.40973 6.71569 6.71569 6.40973 7.09202 6.21799C7.24842 6.1383 7.47262 6.07337 7.91104 6.03755C8.36113 6.00078 8.94342 6 9.8 6Z" fill="#B7D5D4"/>
<defs>
<radialGradient id="paint0_radial_156_329" cx="0" cy="0" r="1" gradientUnits="userSpaceOnUse" gradientTransform="translate(7.5 14.375) rotate(-55.3758) scale(15.9498)">
<stop stop-color="#B13589"/>
<stop offset="0.79309" stop-color="#C62F94"/>
<stop offset="1" stop-color="#8A3AC8"/>
</radialGradient>
<radialGradient id="paint1_radial_156_329" cx="0" cy="0" r="1" gradientUnits="userSpaceOnUse" gradientTransform="translate(6.875 19.375) rotate(-65.1363) scale(14.1214)">
<stop stop-color="#E0E8B7"/>
<stop offset="0.444662" stop-color="#FB8A2E"/>
<stop offset="0.71474" stop-color="#E2425C"/>
<stop offset="1" stop-color="#E2425C" stop-opacity="0"/>
</radialGradient>
<radialGradient id="paint2_radial_156_329" cx="0" cy="0" r="1" gradientUnits="userSpaceOnUse" gradientTransform="translate(0.312501 1.875) rotate(-8.1301) scale(24.3068 5.19897)">
<stop offset="0.156701" stop-color="#406ADC"/>
<stop offset="0.467799" stop-color="#6A45BE"/>
<stop offset="1" stop-color="#6A45BE" stop-opacity="0"/>
</radialGradient>
</defs>
</svg>
