<svg width="14" height="14" viewBox="0 0 14 14" fill="none" xmlns="http://www.w3.org/2000/svg">
<path d="M11.2786 3.42956C11.2786 3.95964 10.8489 4.38936 10.3188 4.38936C9.7887 4.38936 9.35898 3.95964 9.35898 3.42956C9.35898 2.89948 9.7887 2.46976 10.3188 2.46976C10.8489 2.46976 11.2786 2.89948 11.2786 3.42956Z" fill="#F6F5AE"/>
<path fill-rule="evenodd" clip-rule="evenodd" d="M6.79952 10.1481C8.56646 10.1481 9.99885 8.71575 9.99885 6.94882C9.99885 5.18188 8.56646 3.74949 6.79952 3.74949C5.03259 3.74949 3.6002 5.18188 3.6002 6.94882C3.6002 8.71575 5.03259 10.1481 6.79952 10.1481ZM6.79952 8.86841C7.85969 8.86841 8.71912 8.00898 8.71912 6.94882C8.71912 5.88865 7.85969 5.02922 6.79952 5.02922C5.73936 5.02922 4.87993 5.88865 4.87993 6.94882C4.87993 8.00898 5.73936 8.86841 6.79952 8.86841Z" fill="#F6F5AE"/>
<path fill-rule="evenodd" clip-rule="evenodd" d="M0.400879 6.69287C0.400879 4.54272 0.400879 3.46765 0.819325 2.6464C1.1874 1.92401 1.77472 1.33669 2.49711 0.968617C3.31836 0.550171 4.39343 0.550171 6.54358 0.550171H7.05547C9.20562 0.550171 10.2807 0.550171 11.1019 0.968617C11.8243 1.33669 12.4116 1.92401 12.7797 2.6464C13.1982 3.46765 13.1982 4.54272 13.1982 6.69287V7.20476C13.1982 9.35491 13.1982 10.43 12.7797 11.2512C12.4116 11.9736 11.8243 12.5609 11.1019 12.929C10.2807 13.3475 9.20562 13.3475 7.05547 13.3475H6.54358C4.39343 13.3475 3.31836 13.3475 2.49711 12.929C1.77472 12.5609 1.1874 11.9736 0.819325 11.2512C0.400879 10.43 0.400879 9.35491 0.400879 7.20476V6.69287ZM6.54358 1.8299H7.05547C8.15166 1.8299 8.89684 1.8309 9.47283 1.87796C10.0339 1.9238 10.3208 2.00688 10.521 2.10886C11.0025 2.35425 11.3941 2.7458 11.6395 3.22739C11.7415 3.42754 11.8245 3.71446 11.8704 4.27551C11.9174 4.8515 11.9184 5.59668 11.9184 6.69287V7.20476C11.9184 8.30095 11.9174 9.04613 11.8704 9.62212C11.8245 10.1832 11.7415 10.4701 11.6395 10.6702C11.3941 11.1518 11.0025 11.5434 10.521 11.7888C10.3208 11.8907 10.0339 11.9738 9.47283 12.0197C8.89684 12.0667 8.15166 12.0677 7.05547 12.0677H6.54358C5.44739 12.0677 4.70221 12.0667 4.12622 12.0197C3.56517 11.9738 3.27825 11.8907 3.0781 11.7888C2.5965 11.5434 2.20496 11.1518 1.95957 10.6702C1.85759 10.4701 1.7745 10.1832 1.72866 9.62212C1.6816 9.04613 1.68061 8.30095 1.68061 7.20476V6.69287C1.68061 5.59668 1.6816 4.8515 1.72866 4.27551C1.7745 3.71446 1.85759 3.42754 1.95957 3.22739C2.20496 2.7458 2.5965 2.35425 3.0781 2.10886C3.27825 2.00688 3.56517 1.9238 4.12622 1.87796C4.70221 1.8309 5.44739 1.8299 6.54358 1.8299Z" fill="#F6F5AE"/>
</svg>
