<svg width="190" height="190" viewBox="0 0 190 190" fill="none" xmlns="http://www.w3.org/2000/svg">
<path d="M118.028 100.589C117.685 98.1206 117.529 95.8163 117.024 93.4096C116.308 89.9998 113.87 86.9342 112.181 83.926C108.878 78.0419 105.413 71.3928 99.148 68.2824C93.2185 65.3387 88.281 66.4951 82.3659 68.5926C78.7371 69.8794 76.2754 77.0128 75.2245 80.2921C73.5038 85.6617 72.4842 90.1359 73.4392 95.8248C74.1688 100.172 75.6685 106.72 78.6613 110.161C80.0662 111.776 80.8569 113.099 82.656 114.327C83.8572 115.147 85.2326 115.943 86.2936 116.941C88.2688 118.799 91.2866 119.107 93.3234 121.129C95.1156 122.909 97.7058 123.56 98.3223 126.314C98.7141 128.065 99.6169 131.569 101.96 131.699C107.771 132.019 115.007 129.744 119.612 126.314C121.634 124.809 121.867 121.49 120.237 119.512C118.305 117.167 118.25 112.32 118.028 109.452C117.836 106.976 116.525 104.281 117.716 101.785C119.613 97.8082 120.066 93.1973 119.434 88.8007C118.523 82.4688 119.401 76.9442 115.015 71.6726C113.333 69.6513 111.285 67.747 109.414 65.8893C107.074 63.5658 104.799 61.162 101.246 61.1032C95.8725 61.0143 89.3162 61.0356 85.1778 65.003C83.4024 66.7049 80.8935 68.7266 80.0672 71.0965C78.5737 75.3804 79.1796 79.5096 79.6655 83.9481C80.5919 92.4106 80.5277 102.797 87.097 109.319C88.9295 111.138 89.9235 108.317 90.2213 106.97C90.7112 104.755 89.8499 102.335 89.5965 100.146C89.2466 97.1238 88.4457 94.3113 87.4987 91.4154C86.9813 89.8331 84.6211 79.2438 81.2946 81.6658C77.349 84.5388 78.256 95.2648 79.3308 98.9491C80.4671 102.844 83.4945 110.274 88.9493 108.876C94.056 107.567 95.6639 101.517 92.6762 97.5975C91.2704 95.7531 86.1854 91.2246 85.5795 96.1129C84.9641 101.077 88.9502 107.12 92.4976 110.139C94.7623 112.066 99.5085 113.676 100.666 109.541C101.346 107.107 96.8803 103.403 94.64 103.868C89.3715 104.963 95.4503 115.236 96.6932 117.229C98.1661 119.592 106.835 124.701 105.084 118.537C104.611 116.87 100.435 112.113 98.3669 113.396C94.6943 115.675 102.548 123.798 104.504 124.652C107.431 125.931 107.263 122.855 105.977 121.24C104.856 119.833 102.412 118.026 103.388 121.351C104.059 123.634 106.21 129.038 109.414 128.419C112.801 127.765 110.924 119.692 110.217 117.872C109.626 116.349 108.4 113.225 106.78 112.421C105.346 111.709 106.486 115.22 106.624 115.568C107.496 117.766 109.739 123.146 112.717 123.146C116.345 123.146 113.102 114.784 112.627 113.64C112.113 112.4 111.595 110.229 110.217 109.607C109.079 109.093 110.083 113.216 110.217 113.64C110.558 114.716 112.904 124.447 115.618 123.234C118.925 121.757 116.79 115.071 116.198 112.665C115.592 110.203 114.776 107.814 114.1 105.375C113.721 104.006 113.583 104.419 113.922 105.597C114.096 106.202 114.805 107.507 115.618 107.103C117.063 106.386 116.886 103.268 117.024 101.985C117.557 97.0052 117.096 91.7041 116.734 86.7179C116.492 83.3848 116.187 80.8077 114.435 78.0541C111.829 73.9577 111.356 70.0092 106.87 67.1745C103.532 65.0654 99.6165 62.3274 95.7336 64.5155C90.7103 67.3463 86.9534 73.5972 84.7761 78.741C83.918 80.768 83.0412 87.3007 86.9854 84.1254C89.6544 81.9767 91.3535 79.2327 92.7431 76.1485C94.1764 72.9675 96.0509 69.5495 95.6889 65.9558C94.977 58.8873 87.5068 70.4753 86.7846 72.0493C85.4078 75.0495 80.2755 87.1288 85.4902 88.978C87.3901 89.6517 89.4389 87.5441 90.5784 86.2747C93.4273 83.1011 95.7373 78.9409 96.2468 74.6639C96.5387 72.2138 96.1055 68.7525 93.6135 67.4404C90.353 65.7237 86.7298 72.0157 85.6241 74.0878C83.3587 78.3334 81.9125 82.9302 81.5401 87.7371C81.3258 90.5038 80.9646 94.8373 83.8834 96.4674C86.2003 97.7614 89.1917 94.3559 90.4445 92.8778C93.6032 89.1513 95.5976 84.921 97.2734 80.3807C98.5239 76.9926 99.1174 72.9793 98.1438 69.4346C97.3005 66.3647 94.0509 70.8806 93.5019 71.7391C90.0728 77.1015 88.5749 83.8356 87.588 90.0416C87.0636 93.3391 86.0384 98.6607 88.3244 101.542C93.5178 108.086 100.591 90.3163 101.29 87.8258C102.48 83.5879 103.113 78.8763 102.54 74.4866C101.989 70.262 99.3137 75.9677 98.7909 77.345C97.0563 81.9157 96.4745 87.1109 96.1129 91.9472C95.8577 95.3616 95.2019 100.183 96.5146 103.514C97.7244 106.583 100.259 104.962 101.558 103.026C104.367 98.843 105.115 93.7431 105.575 88.845C105.964 84.7023 105.946 80.3001 105.352 76.1707C104.664 71.3903 102.932 81.2483 102.808 82.0204C101.816 88.2046 101.182 94.5477 101.157 100.81C101.143 104.102 100.023 113.165 103.745 115.257C105.833 116.431 107.681 113.536 108.543 112.044C111.335 107.217 111.34 100.62 110.954 95.2487C110.68 91.4406 110.205 87.6534 109.615 83.8816C109.355 82.2248 109.209 80.2779 108.387 78.7631C107.253 76.6712 106.839 86.3941 106.847 86.9395C106.876 88.7843 108.515 112.701 111.511 111.269C113.095 110.512 113.258 106.09 113.386 104.732C113.988 98.3299 112.949 91.6163 111.802 85.3219C111.716 84.8543 110.497 80.0748 110.485 80.1148C109.48 83.5517 109.994 87.8999 109.994 91.4154C109.994 95.463 109.787 99.5981 110.797 103.558C111.207 105.163 112.094 107.042 112.895 104.533C115.393 96.7094 113.127 87.0462 110.998 79.2949C110.435 77.2448 110.35 78.7287 110.485 79.8932C110.841 82.9563 111.277 86.3655 112.404 89.2439C112.593 89.7258 113.968 92.7649 114.971 91.5483C115.939 90.3735 114.9 87.0023 114.569 85.7872C113.395 81.4826 111.171 77.4939 108.811 73.7333C107.538 71.7042 106.071 69.2671 103.589 68.5483C97.2684 66.7179 97.9436 85.6068 98.0322 88.136C98.1785 92.3125 98.6886 96.4306 99.9291 100.434C100.118 101.043 101.328 104.871 102.339 103.115C103.822 100.539 101.329 95.5737 100.175 93.321C99.1211 91.2658 95.4151 84.0049 92.5423 84.1032C89.4844 84.2079 89.5136 90.0792 89.5965 91.9472C89.8313 97.2435 91.0356 102.472 93.4349 107.236C94.5972 109.544 96.6364 112.089 99.3042 112.687C100.403 112.933 102.854 112.623 102.473 110.959C102.093 109.296 99.8673 108.377 98.6124 107.546C96.1137 105.892 93.7556 104.113 91.0694 102.76C86.4902 100.454 90.8912 108.165 91.7612 109.829C93.1686 112.52 95.0794 115.923 98.0991 117.097C99.3756 117.592 99.7275 116.703 98.6794 115.922C96.6415 114.405 94.6218 112.866 92.5423 111.402C91.7154 110.82 88.7439 107.69 87.588 107.945C87.5237 107.959 92.7751 114.79 93.7251 115.523C96.9668 118.027 87.1409 110.644 83.7495 108.344C81.1073 106.553 82.5788 107.47 84.1066 108.965C85.5293 110.357 86.8333 111.841 88.2128 113.263C89.3555 114.441 90.9073 113.809 92.5423 114.393C94.8615 115.222 97.2714 117.977 99.9514 116.055C102.539 114.2 102.305 113.606 103.567 117.008C105.084 121.096 105.832 125.425 106.78 129.66C107.103 131.104 107.58 129.363 107.807 128.774C108.412 127.204 109.158 125.415 109.191 123.722C109.25 120.663 106.747 119.77 104.794 122.326C104.216 123.083 101.797 128.263 104.772 126.913C106.263 126.236 106.835 125.268 107.182 123.677C108.238 118.844 108.224 113.554 107.807 108.654C107.697 107.361 107.541 101.06 105.553 100.567C103.235 99.9914 102.104 109.132 101.96 110.471C101.568 114.118 100.855 117.815 101.558 121.462C102.191 124.74 103.729 123.618 104.683 121.063C106.194 117.013 106.313 112.221 106.133 107.967C106.008 105.015 105.652 102.158 104.973 99.2815C104.753 98.3512 104.54 96.1101 103.544 95.4925C101.851 94.4413 101.597 101.521 101.558 102.162C101.435 104.179 100.815 110.199 101.179 108.211C102.596 100.47 100.019 91.1035 95.8451 84.5464C90.7016 76.4667 85.1331 90.1615 85.1331 94.7391C85.1331 95.5332 85.2227 98.3298 86.6953 97.6196C89.3016 96.3627 88.9517 91.5389 88.927 89.2882C88.9018 87.0056 88.4757 80.3138 85.8919 79.0069C82.7726 77.4291 82.7067 88.5457 82.6783 89.4212" stroke="#F6F5AE" stroke-width="4.81531" stroke-linecap="round" stroke-linejoin="round"/>
<path d="M103.969 138.08C106.091 137.669 108.304 137.124 110.418 136.861C112.302 136.627 114.892 134.417 116.578 133.515C118.127 132.687 120.065 132.507 121.554 131.521C122.14 131.133 124.149 128.407 124.054 130.103C123.995 131.149 122.485 132.942 122.023 133.936C121.197 135.712 119.324 137.445 117.805 138.678C116.159 140.015 114.536 141.121 112.628 142.068C110.811 142.97 108.507 143.485 106.959 144.86C105.862 145.835 107.707 145.872 108.611 146.035C110.322 146.344 112.062 146.016 113.453 145.06C115.108 143.922 117.411 142.79 119.323 142.157C121.028 141.593 122.127 140.521 123.652 139.764C124.249 139.468 126.411 138.999 125.058 140.074C124.41 140.589 124.411 141.979 124.054 142.689C123.602 143.585 122.562 144.441 121.8 145.082C120.132 146.483 118.32 148.098 116.421 149.159C115.61 149.612 119.115 149.967 119.233 150.045" stroke="#4D4D4D" stroke-width="4.81531" stroke-linecap="round" stroke-linejoin="round"/>
<path d="M101.558 128.109C101.558 124.018 101.96 120.044 101.96 115.966C101.96 110.926 100.391 105.952 99.0588 101.12C97.6766 96.1061 95.9364 91.1075 92.7209 86.9393C90.811 84.4637 88.8114 80.2476 85.1778 80.2476C83.025 80.2476 82.6783 82.187 82.6783 83.8372C82.6783 86.9637 84.4288 89.6777 87.0078 91.4152C89.8527 93.332 93.4953 93.7797 96.6486 95.0048C99.2717 96.024 101.94 97.2441 103.879 94.606C107.698 89.4094 108.629 83.2186 108.387 76.9682C108.363 76.3525 107.415 74.2551 106.691 74.974C105.287 76.3685 104.413 78.955 104.37 80.9123C104.179 89.6636 105.359 99.1716 108.878 107.236C109.667 109.042 110.465 110.849 111.422 112.576C112.163 113.913 112.406 115.494 113.297 116.72C113.803 117.415 117.593 121.817 116.019 119.733" stroke="#4D4D4D" stroke-width="4.81531" stroke-linecap="round" stroke-linejoin="round"/>
<path d="M68.2173 134.092C70.5078 131.817 72.4207 129.336 74.3321 126.735C75.5633 125.06 75.124 125.549 74.6445 124.12" stroke="#F6F5AE" stroke-width="4.81531" stroke-linecap="round" stroke-linejoin="round"/>
<path d="M49.7388 101.386C51.9063 100.64 54.7783 99.5898 56.6569 98.2841C56.9339 98.0917 56.2447 99.9472 55.7643 98.9932" stroke="#F6F5AE" stroke-width="4.81531" stroke-linecap="round" stroke-linejoin="round"/>
<path d="M43.7131 63.8949C46.4773 65.7432 49.1865 67.4845 52.6398 67.4845C53.4069 67.4845 55.9206 67.3963 55.3625 66.288" stroke="#F6F5AE" stroke-width="4.81531" stroke-linecap="round" stroke-linejoin="round"/>
<path d="M74.2424 42.3574C74.8261 45.0621 75.8579 47.088 77.4337 49.3372C77.7034 49.7222 79.6417 51.7946 78.6611 50.3343" stroke="#F6F5AE" stroke-width="4.81531" stroke-linecap="round" stroke-linejoin="round"/>
<path d="M110.396 46.7447C112.156 45.5675 114.141 44.2999 115.618 42.7562C116.044 42.3109 117.626 40.2019 117.626 40.3631" stroke="#F6F5AE" stroke-width="4.81531" stroke-linecap="round" stroke-linejoin="round"/>
<path d="M134.497 66.288C138.523 64.983 146.548 62.2996 146.548 62.2996" stroke="#F6F5AE" stroke-width="4.81531" stroke-linecap="round" stroke-linejoin="round"/>
<path d="M134.899 98.9933C137.301 101.308 139.59 100.983 142.532 102.095C143.831 102.587 144.32 102.14 142.532 101.785" stroke="#F6F5AE" stroke-width="4.81531" stroke-linecap="round" stroke-linejoin="round"/>
</svg>
