<svg width="39" height="25" viewBox="0 0 39 25" fill="none" xmlns="http://www.w3.org/2000/svg">
<path d="M1.92764 16.5998C1.61199 16.2099 0.804302 17.2776 0.219426 16.767C-0.36545 16.2656 0.442236 15.5694 0.776451 15.133C1.35204 14.3717 2.04832 13.6848 2.79102 13.0999C3.07882 12.8678 3.74725 12.5243 4.08146 12.9513C4.29499 13.2206 4.35069 13.4619 4.00719 14.1118C3.82152 14.4553 3.72868 14.641 3.23664 15.2351C3.23664 15.4208 3.51516 15.6251 3.72868 15.8107C8.19416 19.7006 13.2352 22.3372 19.2604 22.625C25.2855 22.9221 30.4659 21.056 34.4022 16.3028C34.755 15.885 35.2377 15.4951 35.3027 15.0123C35.3491 14.6503 35.1913 14.4646 34.6993 13.7776C34.5414 13.5641 34.4672 13.0442 34.755 12.7192C35.2284 12.1622 35.739 12.45 35.9154 12.6171C37.113 13.7869 38.0414 15.1609 38.7191 16.3956C38.8491 16.8041 38.6356 17.1383 38.422 17.3425C38.2457 17.5097 37.7815 17.4911 37.503 17.389C37.178 17.2683 36.9088 16.9805 36.4817 16.6648C32.1741 22.3094 26.3532 25.0016 19.2975 24.7417C12.3533 24.5096 6.27243 21.5481 1.92764 16.5998Z" fill="black"/>
<path d="M27.1607 6.39673C27.1329 3.9551 28.8597 1.98695 31.0135 1.99623C32.8888 2.00552 34.5599 3.91797 34.5784 6.08108C34.5877 8.13279 32.7681 10.036 30.7535 10.0638C28.7204 10.0824 27.1793 8.51342 27.1607 6.39673ZM28.9525 6.13678C28.9711 7.30654 29.7695 8.15136 30.8557 8.13279C31.8026 8.11422 32.7124 7.18585 32.666 6.25747C32.6196 5.11557 32.0161 3.93654 30.5493 4.10364C29.7138 4.19648 28.9339 4.78136 28.9525 6.13678Z" fill="#CF9893"/>
<path d="M10.6266 4.52162C10.6081 6.69402 8.83488 8.5322 6.73675 8.54149C4.74075 8.55077 3.15322 6.78686 3.24606 4.51234C3.34818 1.71793 4.89857 0.854544 7.17309 0.650302C8.95557 0.492478 10.6359 2.51633 10.6266 4.52162ZM4.99141 4.32667C4.98212 5.70066 5.72482 6.73116 6.71818 6.74044C7.82295 6.74972 8.85344 5.67281 8.85344 4.49377C8.85344 3.40758 7.86937 2.3678 6.86672 2.39565C5.59485 2.43278 4.99141 3.05479 4.99141 4.32667Z" fill="#F6F5AE"/>
</svg>
