<svg width="34" height="44" viewBox="0 0 34 44" fill="none" xmlns="http://www.w3.org/2000/svg">
<path d="M27.3304 10.9468C27.0983 13.2398 26.9312 15.1523 26.6991 17.0555C26.5692 18.0952 26.1421 18.9958 24.9724 19.2464C23.9976 19.4507 22.9856 18.9122 22.4008 17.7146C21.8345 16.5634 21.426 15.3287 20.9989 14.1125C19.7642 10.6218 17.861 7.52105 15.5029 4.68951C14.7695 3.80755 14.0454 2.92559 13.2006 1.90438C13.0149 2.52639 12.8664 3.02771 12.7178 3.52904C11.1396 8.9786 10.6011 14.5303 10.8425 20.1841C10.9168 22.013 10.7032 23.879 10.4433 25.6986C10.2762 26.8684 9.83985 28.0567 8.42872 28.3166C7.41679 28.5023 6.41415 27.6668 5.80142 26.1442C5.39294 25.123 5.12371 24.0368 4.75236 22.9971C4.54812 22.4122 4.25103 21.8644 3.98181 21.2517C0.574671 25.3923 3.17412 39.0487 7.71387 41.0447C7.73244 37.3869 9.4128 34.3604 11.3995 31.501C14.2125 27.4533 15.7443 22.9785 16.2549 18.1138C16.2921 17.7517 16.3663 17.3804 16.4313 17.0276C16.747 15.3751 17.4247 15.1059 18.6594 16.3313C19.4578 17.1204 20.1634 18.0952 20.6276 19.1072C22.9299 24.0647 23.8862 29.2079 22.3265 34.611C22.1501 35.2052 21.7509 36.0407 22.048 36.4678C22.5679 37.1176 23.3848 36.0036 23.5612 35.5487C24.0254 34.3511 24.3132 33.0978 24.6846 31.863C24.9167 31.0925 25.0559 30.2477 25.4737 29.5792C25.7986 29.0593 26.5042 28.4188 26.9869 28.4652C27.4883 28.5116 28.1845 29.2264 28.3516 29.7835C29.5771 33.9333 29.0015 37.7304 25.1766 40.9518C23.2084 42.6136 20.7854 43.1521 18.3066 43.477C15.5122 43.8391 12.7549 43.9505 9.95126 43.3099C8.6144 43.0035 7.22184 42.7993 6.41415 42.5022C5.60646 42.2051 4.91946 41.6017 4.59453 41.1004C0.463266 34.7224 -0.214447 28.001 2.69137 20.9546C3.29481 19.4971 4.45528 19.1907 5.47649 20.3976C6.22847 21.2888 6.65553 22.4864 7.129 23.6005C7.45393 24.3803 7.63032 25.2252 7.85313 26.0421C8.13164 27.0633 8.54013 27.2212 8.81864 27.0448C9.16214 26.9426 9.36638 25.7079 9.32925 24.4732C9.26426 22.44 9.30139 20.3976 9.08787 18.383C8.46586 12.4786 9.90484 6.94546 12.003 1.52375C12.5229 0.168321 13.117 0.00121328 14.2311 0.948155C18.7987 4.81948 22.0944 9.53562 23.5891 15.4029C23.8212 16.2942 23.8954 17.2968 25.0281 18.0024C25.1395 17.139 25.2323 16.4242 25.3344 15.7186C25.5944 13.9733 25.7615 12.2093 26.1514 10.5011C26.3928 9.47064 27.1076 9.25711 27.8596 9.99981C28.8437 10.9746 29.8092 12.0515 30.4498 13.2677C32.8357 17.8167 33.6527 22.7557 33.6341 27.8432C33.6155 31.8445 32.8728 35.7251 31.0346 39.2993C30.4126 40.5155 29.3636 41.5181 28.4723 42.5858C28.0731 43.0685 27.1633 42.9107 27.5811 41.8338C27.6182 41.7409 27.6646 41.6295 27.7296 41.5367C31.1832 36.9041 31.5267 31.4824 31.5731 26.0236C31.6102 21.6695 30.9789 17.399 28.9458 13.4626C28.5188 12.655 27.971 11.9308 27.3304 10.9468ZM26.8291 29.9877C26.2814 31.8073 25.8543 33.3113 25.3623 34.806C24.9724 35.985 24.3782 37.0526 23.2084 37.6375C21.853 38.3245 20.5347 37.5633 20.4605 36.0407C20.4326 35.4187 20.4605 34.7781 20.5811 34.1747C21.5281 29.3286 21.0825 24.631 19.1886 20.0727C18.8637 19.2928 18.3902 18.578 17.9167 17.7239C17.7496 18.0024 17.6289 19.0143 17.6103 19.4507C17.4897 22.7557 17.1183 26.0236 15.3822 28.9387C14.3425 30.6747 13.1727 32.3365 12.0401 34.0261C10.7868 35.9107 9.67274 37.8603 9.26426 40.1256C8.98575 41.676 9.10644 41.7502 10.5918 42.1309C13.739 42.9293 16.8212 42.4187 19.8941 41.8059C23.3941 41.1096 25.5758 38.8073 26.8755 35.6322C27.5904 33.8962 27.3861 32.0951 26.8291 29.9877Z" fill="#CF9893"/>
</svg>
