<svg width="43" height="47" viewBox="0 0 43 47" fill="none" xmlns="http://www.w3.org/2000/svg">
<path d="M42.2851 13.9345C42.5729 14.2502 42.6101 14.7144 42.3873 15.0857C42.183 15.4292 42.0066 15.7263 41.8024 16.0048C39.6857 18.9385 38.5252 20.4703 36.4364 23.4225C35.9072 24.1652 34.6261 26.4397 34.134 27.2196C34.1247 27.2289 34.1247 27.2381 34.1154 27.2474C33.6698 27.9158 32.5743 27.8694 32.2216 27.136C32.2216 27.136 32.2216 27.1267 32.2123 27.1267C31.6924 25.9848 31.2746 24.8058 30.7919 23.6453C29.4643 20.4424 27.6168 17.6666 24.5439 15.847C23.4299 15.1878 23.4113 14.7051 24.2747 13.7489C24.5996 13.3961 24.9245 13.034 25.2773 12.7184C28.6845 9.68257 31.0332 5.93194 32.7879 1.75425C32.8993 1.49431 33.1221 1.29006 33.3635 1.08582C33.6791 0.825876 34.134 0.863011 34.4125 1.16009C34.6446 1.40147 34.8582 1.66141 34.9881 1.94921C35.2759 2.61764 35.3502 3.36962 35.5266 4.08447C36.4735 7.97436 38.5809 11.0751 41.7838 13.4611C41.9602 13.591 42.118 13.7581 42.2851 13.9345ZM33.7534 4.61364C32.6486 6.45183 31.7202 8.34571 30.4577 9.99822C29.1672 11.6786 27.5518 13.1083 26.0757 14.6587C29.8264 16.9053 31.9988 20.461 33.3078 24.8244C35.2295 20.8509 37.8847 17.6944 40.7997 14.7422C36.195 11.233 35.0995 9.64544 33.7534 4.61364Z" fill="#F6F5AE"/>
<path d="M7.27626 45.9726C6.43144 43.5774 5.69803 41.1358 4.76965 38.7777C3.85984 36.4939 2.50442 34.4608 0.55483 32.8918C-0.160018 32.3162 -0.141451 31.7963 0.443425 31.1465C3.72987 27.5722 6.25505 23.5245 8.06538 19.0219C8.26034 18.5391 8.78023 17.7686 9.1423 17.7686C10.1264 17.5365 10.4792 19.4582 10.5163 19.6346C11.3425 24.1651 14.1462 27.4608 17.2934 30.543C18.3146 31.5457 18.3982 31.852 17.3955 32.8176C13.6171 36.4382 11.1105 40.8944 8.95662 45.5827C8.27891 47.2166 7.37838 46.2604 7.27626 45.9726ZM1.68745 31.7871C3.69274 33.0589 5.02031 34.7579 5.98582 36.6796C6.92348 38.5642 7.61048 40.5602 8.39031 42.4727C10.1914 38.4435 12.6237 34.7207 16.3186 31.8892C12.7444 29.0762 9.92213 25.864 9.05874 21.2593C7.50836 25.3998 5.04816 28.8441 1.68745 31.7871Z" fill="#81ADC8"/>
<path d="M32.649 35.9836C30.5972 38.7409 29.3439 41.8881 28.1928 45.091C28.1185 45.2952 27.8771 46.4557 26.9952 46.4464C26.7445 46.4464 26.3267 46.0472 26.1689 45.7315C25.4726 44.3111 25.0363 42.7236 24.1543 41.4425C23.1145 39.9199 21.6848 38.6666 20.478 37.2648C20.3016 37.0605 20.2366 36.5963 20.348 36.3457C20.5615 35.8815 20.9421 35.5101 21.2392 35.0831C22.7525 32.855 24.2379 30.6083 25.7975 28.4174C26.1225 27.9625 26.7631 27.4147 27.1437 27.4147C28.0906 27.4054 28.2763 28.1481 28.4434 28.6773C29.2047 31.1096 30.5137 33.1428 32.4169 34.8231C33.0946 35.4544 32.7325 35.8722 32.649 35.9836ZM22.2233 36.6242C24.4328 38.1931 25.9368 40.4584 26.8466 42.9928C28.1928 40.5234 29.5667 38.0075 30.9779 35.408C29.084 34.099 27.7657 31.6574 27.1623 29.8563C25.5098 32.1216 23.8758 34.359 22.2233 36.6242Z" fill="#CF9893"/>
</svg>
