<svg width="89" height="73" viewBox="0 0 89 73" fill="none" xmlns="http://www.w3.org/2000/svg">
<path d="M72.1229 45.2306C69.7315 45.2179 67.7061 45.2578 65.6876 45.1828C62.2637 45.0696 58.8874 44.8054 55.7192 43.2538C52.5063 41.6764 50.7609 39.1025 50.8403 35.5997C50.8925 33.4491 51.5281 31.3181 51.9783 29.199C52.1588 28.3714 52.5754 27.5811 53.0237 26.3927C51.3418 27.2455 50.0312 27.936 48.6931 28.5711C45.43 30.1367 42.2281 31.8367 38.8787 33.1741C34.2983 35.0298 30.8195 33.398 29.1153 28.7267C28.4484 26.8944 28.2231 24.881 27.8165 22.9413C27.6977 22.3572 27.6641 21.7629 27.5757 21.0577C25.2327 23.5708 23.0412 25.993 20.7714 28.3105C15.4703 33.7151 10.5139 30.5562 8.50614 25.6897C7.9689 24.3883 7.74115 22.9285 7.50251 21.522C7.37469 20.5759 7.75992 19.6683 8.80612 19.5388C9.75221 19.4109 10.2301 20.1627 10.4861 21.0242C10.7507 21.8708 10.9597 22.7448 11.3118 23.5428C11.7251 24.4753 12.1532 25.4163 12.7415 26.2516C14.4006 28.5973 16.2263 28.9376 18.4873 27.1503C20.0858 25.8925 21.5065 24.3932 22.9249 22.9323C24.2449 21.5731 25.5077 20.1413 26.7706 18.7094C27.4297 17.9798 28.1186 17.2673 29.1887 17.5085C30.4184 17.7823 30.6222 18.8714 30.8158 19.8753C31.0699 21.152 31.1301 22.4556 31.4546 23.7135C31.8436 25.306 32.2709 26.9008 32.8968 28.3921C33.7524 30.4126 34.887 30.9884 37.0064 30.408C39.0319 29.8527 41.073 29.1675 42.9871 28.2901C47.0779 26.3896 51.0842 24.3609 55.099 22.3174C56.0509 21.8361 56.9101 21.6184 57.7438 22.3377C58.5415 23.0163 58.4034 23.908 58.0502 24.7944C57.4171 26.3718 56.7073 27.9445 56.1571 29.5498C55.6802 30.9596 55.2159 32.4163 55.0049 33.8805C54.4317 37.7921 55.8106 39.9363 59.5057 41.2965C62.2824 42.3247 65.1701 42.7826 68.1107 42.8745C70.2292 42.9478 72.3484 42.8827 74.4568 42.8708C75.5727 42.8609 76.727 42.8533 77.2282 44.1141C77.6871 45.3108 76.9718 46.2063 76.2291 47.0463C75.9081 47.3962 75.5363 47.697 75.1792 48.0063C74.4503 48.6164 73.7489 49.2819 72.9628 49.8193C67.1439 53.8545 66.3373 59.4751 67.9426 65.7943C68.2419 66.9583 68.9079 68.0367 69.4418 69.138C69.7013 69.6843 70.1336 70.1718 70.3227 70.7369C70.4679 71.1379 70.5054 71.794 70.268 72.0336C70.0134 72.3029 69.3659 72.3256 68.9678 72.294C68.1035 72.2114 67.2332 71.5899 66.7335 70.9445C65.7489 69.6624 64.8096 68.2676 64.2456 66.7723C62.9825 63.4659 62.7915 59.9853 63.2182 56.4649C63.5829 53.4638 65.1332 51.0878 67.3205 49.1191C68.7657 47.8521 70.2955 46.7132 72.1229 45.2306Z" fill="#F6F5AE"/>
</svg>
