<svg width="201" height="201" viewBox="0 0 201 201" fill="none" xmlns="http://www.w3.org/2000/svg">
<path d="M148.911 101.974C145.075 103.03 141.849 104.006 138.582 104.794C133.047 106.154 127.52 107.25 121.747 106.191C115.891 105.111 111.936 101.773 110.487 96.1271C109.603 92.6589 109.662 88.9595 109.429 85.3627C109.346 83.9558 109.657 82.5024 109.84 80.3971C107.53 82.5201 105.742 84.2161 103.884 85.8355C99.3624 89.8119 94.9989 93.976 90.2359 97.6257C83.7345 102.66 77.4278 101.612 72.5957 94.8964C70.7028 92.2618 69.4357 89.1381 67.9114 86.2142C67.4582 85.3322 67.137 84.3954 66.6779 83.3055C64.056 88.3854 61.6361 93.2516 59.0435 97.9852C52.985 109.028 43.6244 106.199 38.2181 99.3079C36.7718 97.4651 35.75 95.2295 34.7347 93.0839C34.1041 91.626 34.3126 89.9989 35.9301 89.3206C37.388 88.69 38.4918 89.679 39.2896 90.9436C40.0944 92.1806 40.8227 93.4866 41.7458 94.6063C42.8274 95.9139 43.9367 97.2285 45.2549 98.3016C48.9682 101.312 52.0456 101.035 54.8628 97.155C56.8571 94.4208 58.4579 91.3799 60.0722 88.4014C61.5748 85.6303 62.9531 82.7684 64.3313 79.9066C65.0587 78.4413 65.8415 76.99 67.6641 76.8946C69.7569 76.7797 70.5736 78.4325 71.3355 79.9533C72.3172 81.884 73.0004 83.9448 74.0863 85.8136C75.4261 88.1893 76.8284 90.5515 78.5021 92.6586C80.7819 95.5098 82.8585 95.9214 85.9919 94.0378C88.9864 92.2366 91.9473 90.2205 94.6183 87.9537C100.315 83.0683 105.819 78.0157 111.33 72.9355C112.638 71.7361 113.917 71.0008 115.576 71.7776C117.159 72.5055 117.339 73.9959 117.172 75.5748C116.868 78.3862 116.439 81.2247 116.28 84.0438C116.151 86.5165 116.063 89.0588 116.384 91.499C117.226 98.0224 120.4 100.836 126.931 101.352C131.841 101.749 136.673 101.183 141.424 100.006C144.851 99.1703 148.216 98.1122 151.587 97.1442C153.37 96.626 155.216 96.0943 156.586 97.8882C157.86 99.5985 157.117 101.355 156.306 103.035C155.949 103.74 155.489 104.389 155.056 105.045C154.163 106.35 153.339 107.732 152.322 108.946C144.818 118.029 146.055 127.395 151.471 136.794C152.474 138.524 154.026 139.951 155.377 141.475C156.039 142.233 156.95 142.819 157.508 143.639C157.921 144.216 158.276 145.25 158.004 145.741C157.717 146.287 156.69 146.615 156.038 146.743C154.617 147 152.943 146.396 151.852 145.587C149.698 143.977 147.566 142.166 145.989 140.024C142.478 135.297 140.606 129.808 139.704 123.977C138.938 119.006 140.352 114.502 142.969 110.364C144.714 107.684 146.652 105.172 148.911 101.974Z" fill="#CF9893"/>
</svg>
