<svg width="112" height="104" viewBox="0 0 112 104" fill="none" xmlns="http://www.w3.org/2000/svg">
<path d="M43.0286 94.5866C44.079 90.7489 44.8869 87.4767 45.8767 84.265C47.533 78.8114 49.4114 73.4991 53.2694 69.0756C57.188 64.5914 62.0761 62.8948 67.6711 64.5309C71.1049 65.5408 74.2559 67.4799 77.4675 69.116C78.7199 69.7623 79.8106 70.7723 81.5275 72.0044C80.8811 68.9342 80.3358 66.5305 79.8914 64.1067C78.7805 58.1884 77.4271 52.3106 76.7202 46.352C75.7102 38.1917 79.8308 33.3036 88.0719 32.5764C91.3037 32.2936 94.6365 32.7986 97.9289 32.9804C98.9186 33.041 99.8882 33.243 101.06 33.4045C98.0299 28.5568 95.0809 23.9919 92.3338 19.3462C85.9308 8.49946 93.1418 1.89447 101.827 0.763335C104.15 0.460353 106.594 0.722942 108.957 0.945127C110.533 1.14712 111.826 2.15705 111.583 3.89415C111.381 5.46965 109.967 5.91402 108.473 5.95442C106.998 6.01502 105.503 5.97462 104.069 6.1968C102.393 6.45939 100.696 6.74217 99.1004 7.32794C94.6163 8.98424 93.2832 11.7717 95.1819 16.175C96.515 19.2856 98.3127 22.2144 100.05 25.1231C101.666 27.8297 103.423 30.4757 105.18 33.1218C106.069 34.4953 106.917 35.9092 106.069 37.5251C105.099 39.3834 103.261 39.242 101.565 39.1208C99.4034 38.9794 97.2825 38.5148 95.1213 38.4946C92.3944 38.434 89.6474 38.434 86.9812 38.7976C83.3656 39.3026 81.9517 40.8781 81.9719 44.5341C81.9921 48.0285 82.2142 51.6036 82.8 55.0576C84.0927 62.4504 85.6278 69.7623 87.1831 77.0945C87.5467 78.8316 87.5265 80.3061 86.0116 81.3362C84.5775 82.326 83.204 81.72 81.9315 80.7707C79.6692 79.074 77.4473 77.2561 75.1043 75.6806C73.044 74.3071 70.9029 72.9335 68.6407 71.964C62.6012 69.3584 58.5615 70.6511 54.7843 76.0037C51.9363 80.0233 49.9568 84.467 48.5429 89.1532C47.5128 92.5263 46.7048 95.9601 45.8161 99.3535C45.3515 101.151 44.8667 103.01 42.6246 103.272C40.5038 103.494 39.3726 101.959 38.3425 100.404C37.9183 99.7373 37.5952 99.0102 37.2518 98.3032C36.5852 96.8691 35.8177 95.4552 35.2925 93.9605C31.3133 82.8713 22.6279 79.1548 11.7811 79.0134C9.78145 78.9932 7.76158 79.5991 5.7619 79.9829C4.77216 80.1647 3.80262 80.6495 2.81288 80.7101C2.10592 80.7707 1.03538 80.5485 0.752606 80.0637C0.429422 79.5385 0.671805 78.4882 0.894001 77.862C1.39896 76.5087 2.77249 75.3776 4.02481 74.8524C6.50926 73.8223 9.15529 72.9133 11.8013 72.6507C17.659 72.0448 23.3348 73.2365 28.8087 75.4382C33.4746 77.3167 36.6256 80.8313 38.8475 85.1942C40.2614 88.0624 41.4329 91.0114 43.0286 94.5866Z" fill="#CF9893"/>
</svg>
