<svg width="47" height="16" viewBox="0 0 47 16" fill="none" xmlns="http://www.w3.org/2000/svg">
<path d="M10.8873 5.60281C9.68974 6.68901 8.52927 7.63596 7.41522 8.80571C5.78128 10.5139 4.25874 12.3242 2.68979 14.0882C2.2813 14.5431 1.95637 15.2115 1.17654 14.8587C0.665931 14.6266 0.665931 14.0417 1.15797 13.0762C1.44577 12.5192 1.7707 11.9808 2.15133 11.4794C4.30516 8.62932 6.84891 6.16912 9.78257 4.1267C10.2839 3.7832 10.8316 3.46755 11.4072 3.27259C12.5027 2.91053 13.3475 3.54182 13.2454 4.69301C13.1804 5.43571 12.9205 6.17841 12.6977 6.90254C12.2706 8.27653 11.7786 9.62268 11.3701 11.006C11.2587 11.3866 11.1194 12.0457 11.3515 12.3335C11.7507 12.7606 12.939 11.5351 13.4682 10.9688C15.0929 9.25133 16.6618 7.47813 18.2679 5.74207C19.874 3.99673 21.6472 2.42777 23.7175 1.24874C24.3209 0.905237 24.9708 0.608156 25.6392 0.431765C26.7161 0.143969 27.5702 0.858817 27.496 1.98215C27.4588 2.52061 27.301 3.07763 27.0689 3.56967C26.4748 4.80441 25.797 5.99273 25.175 7.2089C24.5252 8.48078 23.8475 9.75265 23.6061 11.4794C24.061 11.0709 24.3581 10.8389 24.6087 10.5603C26.2427 8.79642 27.8395 7.00466 29.492 5.25932C30.9959 3.67179 32.602 2.18639 34.5423 1.14661C35.2757 0.756697 36.102 0.450334 36.919 0.338929C38.0516 0.190389 38.8314 1.05378 38.6086 2.17711C38.4415 3.00336 38.0887 3.80177 37.7359 4.56303C37.0582 6.00202 36.3155 7.40386 35.6192 8.82428C35.4614 9.13992 34.9787 9.88262 35.415 9.95689C35.8792 9.46485 36.3434 8.96353 36.8168 8.48078C38.0702 7.17177 39.2956 5.84419 40.5861 4.57232C41.7465 3.42113 43.037 2.42777 44.6895 2.05642C46.082 1.74077 47.0661 2.60416 46.8433 4.01529C46.7319 4.69301 46.5091 5.38929 46.1934 6.00201C44.8194 8.70359 43.399 11.3773 41.9879 14.0603C41.8301 14.3481 41.6537 14.6545 41.403 14.8587C41.1709 15.0444 40.781 15.2579 40.5582 15.1744C40.3354 15.0908 39.9269 14.7937 39.9733 14.2088C40.0197 13.6704 40.1776 13.2712 40.3911 12.7884C41.3752 10.5603 42.415 8.36009 43.4362 6.15056C43.7147 5.5564 44.0118 4.97152 44.2996 4.37736C44.4017 4.20097 44.3738 4.17312 44.3181 4.10813C44.0489 3.96887 43.3062 4.53518 42.9998 4.83226C41.2452 6.52191 39.5184 8.23011 37.8009 9.94761C37.1232 10.6253 36.5012 11.368 35.8235 12.0457C35.2665 12.6028 34.5795 12.9184 33.8089 12.5471C33.0384 12.1757 32.8248 11.3959 32.9548 10.6532C33.1405 9.56697 33.3726 8.46221 33.8182 7.46885C34.4866 5.9556 35.3593 4.5259 36.1391 3.05907C36.2691 2.80841 36.3805 2.53918 36.594 2.05642C36.1113 2.26066 35.8142 2.34422 35.545 2.49276C33.7811 3.47684 32.2864 4.80441 30.9402 6.28053C29.3249 8.05372 27.8116 9.91976 26.2148 11.7208C25.5835 12.4357 24.9336 13.1691 24.1817 13.7447C22.7241 14.8773 21.2666 14.2738 21.0809 12.4449C20.9973 11.5816 21.1273 10.6717 21.3316 9.82692C21.8422 7.68237 23.0026 5.81634 24.0981 3.93174C24.3302 3.53254 24.5623 3.13334 24.7108 2.67843C22.9191 3.33758 21.4708 4.4702 20.1618 5.75135C18.1287 7.73808 16.2069 9.84549 14.2202 11.8693C13.7096 12.3892 13.1433 12.8906 12.5213 13.2712C11.4629 13.9118 10.3117 13.4197 10.0518 12.2128C9.85684 11.3309 9.84756 10.3561 9.98682 9.46486C10.1818 8.15585 11.0359 5.75135 10.9987 5.60281C10.9987 5.46356 10.8873 5.60281 10.8873 5.60281Z" fill="#F6F5AE"/>
</svg>
