<svg width="44" height="42" viewBox="0 0 44 42" fill="none" xmlns="http://www.w3.org/2000/svg">
<path d="M22.9852 20.355C22.8138 19.6695 22.7138 19.1124 22.5282 18.5697C20.6714 13.0851 17.6863 8.20045 14.287 3.55858C13.8871 3.01584 13.3872 2.50166 12.8302 2.15888C12.5303 1.9732 11.9304 2.00177 11.5876 2.18744C11.3305 2.33027 11.1448 2.88729 11.202 3.20151C11.302 3.80138 11.5162 4.41554 11.8161 4.95828C13.7871 8.54324 15.7724 12.1139 17.7863 15.6703C18.5433 16.9986 19.3431 18.3126 20.1287 19.6266C20.3857 20.0694 20.6714 20.4979 20.9713 20.8978C21.2998 21.3548 21.7997 21.6262 22.2996 21.3262C22.6281 21.1263 22.9852 20.9835 22.9852 20.355Z" fill="#CD4631"/>
<path d="M2.76064 41.6223C3.44621 41.5081 4.24604 41.4224 5.0173 41.251C8.05952 40.5654 11.1017 39.8799 14.1297 39.1657C14.7867 39.0086 15.4294 38.7372 16.015 38.423C16.8005 38.0088 17.0719 37.4232 16.9433 36.7805C16.8148 36.1378 16.3006 35.7379 15.4008 35.7236C14.7867 35.7093 14.1297 35.7236 13.5441 35.8664C9.70202 36.8376 5.85998 37.8374 2.03222 38.8515C1.60374 38.9658 1.16098 39.1657 0.832476 39.4514C0.00407982 40.1512 0.261169 41.251 1.31809 41.5224C1.73229 41.6223 2.20361 41.5795 2.76064 41.6223Z" fill="#CD4631"/>
<path d="M42.8949 3.32974C42.8377 2.65845 42.6949 1.98717 42.5235 1.33016C42.3664 0.744575 41.9665 0.330377 41.3238 0.273246C40.781 0.230398 40.1955 0.773141 40.1098 1.48728C39.9955 2.44422 39.8955 3.41544 39.9384 4.37238C40.0669 7.25748 40.2526 10.1569 40.4525 13.042C40.524 13.9989 40.6525 14.9559 40.8096 15.9128C40.8667 16.2413 40.981 16.5841 41.1667 16.8412C41.6666 17.5696 42.5807 17.5125 42.9377 16.7269C43.1377 16.2841 43.2234 15.7414 43.2234 15.2558C43.2948 13.6561 43.0806 5.70067 42.8949 3.32974Z" fill="#CD4631"/>
</svg>
