<svg width="56" height="56" viewBox="0 0 56 56" fill="none" xmlns="http://www.w3.org/2000/svg">
<path d="M53.5522 34.7775C50.7778 34.0652 46.1038 33.3028 44.3792 32.1281C43.6668 31.6407 43.7543 31.1033 43.8793 30.7284C44.0042 30.3784 44.7166 30.016 45.154 30.041C46.1413 30.0785 47.1286 30.291 48.0784 30.5534C50.1904 31.1283 52.29 31.7282 54.3645 32.4155C55.4643 32.7779 55.8142 33.6153 55.1769 34.1526C54.802 34.4651 54.452 34.7775 53.5522 34.7775Z" fill="#CF9893"/>
<path d="M9.81113 54.086C9.93611 53.4237 10.1861 53.0737 10.5485 52.5613C11.9607 50.5868 13.4354 48.6497 14.8851 46.7126C14.9725 46.6001 15.0725 46.4751 15.185 46.3876C15.6849 45.9627 16.2473 45.4628 16.8971 45.9252C17.547 46.4001 17.322 47.1 16.9721 47.6624C15.5224 50.0244 14.0477 52.3739 12.5481 54.7109C12.3231 55.0733 11.9357 55.3857 11.5483 55.5732C10.586 56.0356 9.73615 55.3982 9.81113 54.086Z" fill="#CF9893"/>
<path d="M41.0418 53.649C41.0418 54.2113 40.6044 54.6113 40.2794 54.6737C39.842 54.7612 39.4671 54.6862 38.8423 54.2613C38.6298 54.1239 38.5048 53.7864 38.3798 53.524C37.4675 51.5494 36.5427 49.5873 35.6554 47.6002C35.4305 47.1128 35.2055 46.5505 35.243 46.0381C35.2805 45.5757 35.5679 44.9133 35.9429 44.7508C36.3053 44.5884 36.7927 44.5384 37.3676 45.1008C37.58 45.3007 37.78 45.6381 37.9174 45.9506C38.8173 48.0376 39.7171 50.1247 40.5919 52.2243C40.7543 52.6242 40.8543 53.0616 41.0418 53.649Z" fill="#CF9893"/>
<path d="M1.37555 36.4275C0.80067 36.265 0.425749 35.99 0.338268 35.6151C0.225792 35.1402 0.463242 34.5029 0.738183 34.053C0.950638 33.7155 1.43803 33.5031 1.85045 33.3656C3.91251 32.6782 5.98707 32.0034 8.07413 31.366C8.42405 31.2535 8.87396 31.2161 9.21139 31.3285C9.76127 31.516 9.99872 31.9534 9.54881 32.4783C9.29887 32.7782 9.01143 33.0907 8.674 33.2531C6.72441 34.2279 4.76233 35.1652 2.78775 36.09C2.42533 36.2525 1.93793 36.6024 1.37555 36.4275Z" fill="#CF9893"/>
<path d="M43.7164 14.982C43.4415 14.8695 43.204 14.4196 43.1915 14.1197C43.179 13.7073 43.304 13.2074 43.554 12.87C44.7162 11.2703 45.9409 9.69562 47.1532 8.13345C47.3281 7.896 47.5656 7.70854 47.803 7.52108C48.3404 7.10867 49.0403 6.74625 49.5152 7.37111C49.7901 7.73354 49.8776 8.65834 49.6152 8.97078C48.0155 10.9204 46.2909 12.7825 44.5787 14.6446C44.4413 14.807 44.1663 15.0695 43.7164 14.982Z" fill="#CF9893"/>
<path d="M3.65016 12.2701C4.35002 12.4826 4.8874 12.6076 5.39979 12.795C6.88698 13.3324 8.37416 13.8823 9.84885 14.4447C10.2613 14.6071 10.6987 14.7696 11.0361 15.0321C11.2736 15.2195 11.536 15.6944 11.4485 15.8694C11.2985 16.1568 11.0736 16.5192 10.5612 16.4817C10.3487 16.4692 10.0738 16.4568 9.83636 16.3943C8.16171 15.9444 6.48706 15.5195 4.82492 15.0196C4.26254 14.8571 3.67516 14.6196 3.22526 14.2572C2.90032 13.9948 2.60039 13.4074 2.68787 13.0575C2.76285 12.7325 3.03779 12.2701 3.65016 12.2701Z" fill="#CF9893"/>
<path d="M26.5203 7.09592C26.5078 7.24589 26.4953 7.39586 26.4454 7.53333C26.2329 8.1457 26.0954 8.83306 25.2331 8.77057C24.3208 8.70808 24.2833 7.95824 24.2958 7.34587C24.3333 5.87118 24.4708 4.3965 24.5832 2.90931C24.6332 2.37192 24.6957 1.82204 24.8457 1.30965C24.9957 0.784761 25.2081 0.247375 25.933 0.334856C26.6078 0.422338 26.8328 0.872243 26.8453 1.47212C26.8453 2.12198 26.6453 5.87118 26.5203 7.09592Z" fill="#CF9893"/>
</svg>
