<svg width="43" height="47" viewBox="0 0 43 47" fill="none" xmlns="http://www.w3.org/2000/svg">
<path d="M42.2851 13.9346C42.5729 14.2503 42.6101 14.7145 42.3873 15.0858C42.183 15.4293 42.0066 15.7264 41.8024 16.0049C39.6857 18.9386 38.5252 20.4704 36.4364 23.4226C35.9072 24.1653 34.626 26.4399 34.134 27.2197C34.1247 27.229 34.1247 27.2383 34.1154 27.2475C33.6698 27.916 32.5743 27.8696 32.2215 27.1361C32.2215 27.1361 32.2216 27.1269 32.2123 27.1269C31.6924 25.985 31.2746 24.8059 30.7919 23.6454C29.4643 20.4426 27.6168 17.6667 24.5439 15.8471C23.4298 15.188 23.4113 14.7052 24.2747 13.749C24.5996 13.3962 24.9245 13.0341 25.2773 12.7185C28.6844 9.68269 31.0332 5.93206 32.7879 1.75437C32.8993 1.49443 33.1221 1.29019 33.3635 1.08594C33.6791 0.825998 34.134 0.863133 34.4125 1.16021C34.6446 1.40159 34.8581 1.66154 34.9881 1.94933C35.2759 2.61776 35.3502 3.36974 35.5266 4.08459C36.4735 7.97448 38.5809 11.0753 41.7838 13.4612C41.9602 13.5912 42.118 13.7583 42.2851 13.9346ZM33.7534 4.61377C32.6486 6.45195 31.7202 8.34583 30.4576 9.99834C29.1672 11.6787 27.5518 13.1084 26.0757 14.6588C29.8263 16.9054 31.9987 20.4611 33.3077 24.8245C35.2295 20.851 37.8846 17.6946 40.7997 14.7423C36.195 11.2331 35.0995 9.64556 33.7534 4.61377Z" fill="#F6F5AE"/>
<path d="M7.27625 45.9727C6.43143 43.5775 5.69801 41.1359 4.76964 38.7778C3.85983 36.494 2.5044 34.4609 0.554815 32.8919C-0.160034 32.3163 -0.141466 31.7964 0.44341 31.1466C3.72986 27.5723 6.25504 23.5246 8.06537 19.022C8.26033 18.5392 8.78022 17.7687 9.14228 17.7687C10.1264 17.5366 10.4791 19.4583 10.5163 19.6347C11.3425 24.1652 14.1462 27.4609 17.2934 30.5431C18.3146 31.5458 18.3982 31.8521 17.3955 32.8176C13.617 36.4383 11.1104 40.8945 8.95661 45.5828C8.27889 47.2167 7.37837 46.2605 7.27625 45.9727ZM1.68743 31.7871C3.69272 33.059 5.0203 34.7579 5.98581 36.6797C6.92347 38.5643 7.61046 40.5603 8.3903 42.4727C10.1913 38.4436 12.6237 34.7208 16.3186 31.8893C12.7444 29.0763 9.92212 25.8641 9.05873 21.2594C7.50834 25.3999 5.04815 28.8442 1.68743 31.7871Z" fill="#81ADC8"/>
<path d="M32.6489 35.9838C30.5972 38.7411 29.3439 41.8882 28.1927 45.0911C28.1184 45.2954 27.877 46.4558 26.9951 46.4466C26.7444 46.4466 26.3266 46.0474 26.1688 45.7317C25.4725 44.3113 25.0362 42.7238 24.1542 41.4426C23.1145 39.9201 21.6848 38.6668 20.4779 37.2649C20.3015 37.0607 20.2365 36.5965 20.3479 36.3458C20.5614 35.8817 20.9421 35.5103 21.2391 35.0833C22.7524 32.8552 24.2378 30.6085 25.7975 28.4175C26.1224 27.9626 26.763 27.4149 27.1436 27.4149C28.0906 27.4056 28.2762 28.1483 28.4433 28.6775C29.2046 31.1098 30.5136 33.143 32.4168 34.8233C33.0945 35.4546 32.7324 35.8724 32.6489 35.9838ZM22.2232 36.6244C24.4328 38.1933 25.9367 40.4585 26.8465 42.993C28.1927 40.5235 29.5667 38.0076 30.9778 35.4082C29.0839 34.0992 27.7656 31.6576 27.1622 29.8565C25.5097 32.1217 23.8757 34.3591 22.2232 36.6244Z" fill="#CF9893"/>
</svg>
