<svg width="86" height="84" viewBox="0 0 86 84" fill="none" xmlns="http://www.w3.org/2000/svg">
<path d="M40.58 40.983C40.9227 39.6119 41.1227 38.4978 41.4941 37.4123C45.2076 26.4432 51.1777 16.6739 57.9763 7.39011C58.7761 6.30462 59.7759 5.27627 60.8899 4.5907C61.4898 4.21935 62.6896 4.27648 63.3751 4.64783C63.8893 4.93349 64.2607 6.04753 64.1464 6.67597C63.9464 7.87572 63.518 9.10403 62.9181 10.1895C58.9761 17.3594 55.0055 24.5008 50.9778 31.6136C49.4638 34.2701 47.8641 36.8981 46.293 39.5262C45.7789 40.4117 45.2075 41.2686 44.6077 42.0685C43.9507 42.9826 42.9509 43.5253 41.9511 42.9254C41.2941 42.5255 40.58 42.2399 40.58 40.983Z" fill="#CF9893"/>
<path d="M81.0287 83.5179C79.6575 83.2894 78.0578 83.118 76.5153 82.7752C70.4309 81.404 64.3465 80.0329 58.2906 78.6046C56.9766 78.2904 55.6912 77.7477 54.52 77.1192C52.9489 76.2909 52.4061 75.1197 52.6632 73.8342C52.9203 72.5488 53.9487 71.749 55.7483 71.7204C56.9766 71.6918 58.2906 71.7204 59.4618 72.006C67.1459 73.9485 74.83 75.9481 82.4855 77.9762C83.3424 78.2047 84.228 78.6046 84.885 79.1759C86.5418 80.5756 86.0276 82.7752 83.9137 83.3179C83.0854 83.5179 82.1427 83.4322 81.0287 83.5179Z" fill="#CF9893"/>
<path d="M0.759925 6.93365C0.874187 5.59108 1.15984 4.24851 1.50263 2.9345C1.81684 1.76332 2.61668 0.934924 3.90212 0.820662C4.9876 0.734966 6.15878 1.82045 6.33017 3.24872C6.55869 5.1626 6.75865 7.10505 6.67296 9.01893C6.41587 14.7891 6.04452 20.5879 5.6446 26.3581C5.50178 28.272 5.24469 30.1859 4.93047 32.0998C4.81621 32.7568 4.58769 33.4423 4.21634 33.9565C3.21655 35.4133 1.38836 35.2991 0.67423 33.728C0.274315 32.8425 0.102923 31.757 0.102923 30.7857C-0.0399039 27.5864 0.388575 11.6755 0.759925 6.93365Z" fill="#CF9893"/>
</svg>
