<svg width="195" height="54" viewBox="0 0 195 54" fill="none" xmlns="http://www.w3.org/2000/svg">
<path d="M26.4368 0.0508423C21.2767 0.0508423 16.2326 1.62888 11.9422 4.58537C7.65198 7.54201 4.30807 11.7443 2.33332 16.6608C0.35872 21.5774 -0.157923 26.9875 0.848803 32.2068C1.85538 37.4263 4.34009 42.2206 7.98877 45.9836C11.6375 49.7465 16.2862 52.3092 21.347 53.3474C26.4078 54.3856 31.6534 53.8528 36.4206 51.8162C41.1878 49.7797 45.2624 46.331 48.1291 41.9062C50.9958 37.4814 52.5259 32.2793 52.5259 26.9577C52.5259 19.8215 49.7772 12.9777 44.8846 7.93171C39.9918 2.88559 33.3561 0.0508423 26.4368 0.0508423ZM38.409 38.8542C38.298 39.0443 38.1514 39.2098 37.9779 39.341C37.8043 39.4722 37.6071 39.5665 37.3978 39.6184C37.1887 39.6704 36.9715 39.6789 36.759 39.6435C36.5465 39.6082 36.343 39.5297 36.1603 39.4125C30.0389 35.5472 22.3349 34.6882 13.2567 36.8142C13.0502 36.865 12.836 36.873 12.6264 36.8377C12.417 36.8025 12.2162 36.7246 12.0362 36.6089C11.856 36.493 11.7 36.3414 11.577 36.1628C11.4541 35.9842 11.367 35.7823 11.3204 35.5687C11.2708 35.3544 11.2629 35.1321 11.2967 34.9145C11.3307 34.6969 11.4058 34.4885 11.518 34.3009C11.6302 34.1135 11.7772 33.9507 11.9504 33.8218C12.1237 33.693 12.32 33.6006 12.5279 33.5501C22.4598 31.2094 30.9966 32.2187 37.8677 36.5565C38.2343 36.7876 38.4972 37.1593 38.5985 37.5899C38.7001 38.0207 38.6319 38.4752 38.409 38.8542ZM41.5947 31.5315C41.3038 31.9932 40.8519 32.3218 40.3327 32.4497C39.8135 32.5776 39.2665 32.4949 38.8046 32.2187C30.8879 27.6641 21.5419 26.5366 12.8195 29.0835C12.5481 29.2396 12.2462 29.331 11.9361 29.3511C11.6259 29.3711 11.3154 29.3194 11.0272 29.1995C10.7389 29.0797 10.4805 28.8949 10.2706 28.6586C10.0607 28.4223 9.90463 28.1405 9.81402 27.834C9.72341 27.5274 9.70049 27.2038 9.74694 26.8869C9.79338 26.57 9.90797 26.268 10.0824 26.0027C10.2568 25.7374 10.4865 25.5159 10.7547 25.3541C11.0231 25.1924 11.323 25.0945 11.6326 25.0679C16.5011 23.6225 21.6006 23.1951 26.6315 23.8111C31.6624 24.4269 36.5233 26.0734 40.9284 28.6541C41.376 28.9541 41.6946 29.4201 41.8186 29.9555C41.9426 30.4911 41.8625 31.0553 41.5947 31.5315ZM41.8653 23.9083C33.5368 18.7545 19.6073 18.2821 11.5702 20.7946C10.9517 20.9883 10.2839 20.9206 9.71385 20.6064C9.14378 20.2923 8.71805 19.7575 8.53031 19.1196C8.34256 18.4818 8.40813 17.7931 8.71274 17.2051C9.01721 16.6172 9.53582 16.1781 10.1543 15.9845C19.3783 13.107 34.682 13.6653 44.364 19.5706C44.8617 19.938 45.2071 20.4851 45.3316 21.1033C45.4559 21.7213 45.3501 22.365 45.0352 22.9065C44.7202 23.4477 44.2192 23.8469 43.632 24.0245C43.0446 24.2023 42.4139 24.1455 41.8653 23.8654V23.9083Z" fill="#1ED760"/>
<path d="M79.7465 22.6969C74.7485 21.4514 73.853 20.5496 73.853 18.7888C73.853 17.0279 75.4148 15.9112 77.7476 15.9112C80.2473 16.0079 82.6484 16.9513 84.576 18.5955C84.6154 18.6162 84.6579 18.6269 84.7019 18.6269C84.7444 18.6269 84.7885 18.6162 84.8264 18.5955C84.9084 18.5792 84.9827 18.5336 85.0343 18.4667L87.4916 14.9019C87.5401 14.8377 87.5675 14.7583 87.5675 14.6765C87.5675 14.5947 87.5401 14.5152 87.4916 14.451C84.7824 12.164 81.372 10.946 77.872 11.0151C72.4795 11.0151 68.7109 14.3651 68.7109 19.1324C68.7109 24.2645 71.9589 26.0898 77.5806 27.4856C82.3692 28.6238 83.1812 29.6331 83.1812 31.2866C83.1812 32.9399 81.5359 34.3358 79.0164 34.3358C76.0386 34.3146 73.1852 33.0975 71.0634 30.943C70.983 30.915 70.8949 30.915 70.813 30.943C70.728 30.9642 70.6491 31.0087 70.5838 31.0718L67.7942 34.4002C67.7365 34.464 67.7031 34.5486 67.7031 34.6364C67.7031 34.7243 67.7365 34.8088 67.7942 34.8726C70.8251 37.6728 74.7607 39.2044 78.8298 39.1674C84.6382 39.1674 88.4083 35.8819 88.4083 30.8141C88.3248 26.5837 85.8251 24.2216 79.7465 22.6969Z" fill="black"/>
<path d="M101.484 17.6049C100.28 17.5972 99.0918 17.874 98.0096 18.4136C96.9259 18.9533 95.9773 19.7419 95.2367 20.7186V18.3565C95.2321 18.2692 95.1942 18.1872 95.1319 18.1274C95.0697 18.0675 94.9877 18.0342 94.9043 18.0344H90.3859C90.3009 18.0342 90.219 18.0675 90.1567 18.1274C90.0945 18.1872 90.0581 18.2692 90.052 18.3565V44.5547C90.052 44.6458 90.0869 44.7333 90.1491 44.7977C90.2129 44.8621 90.2964 44.8983 90.3859 44.8983H94.8618C94.9498 44.8983 95.0348 44.8621 95.097 44.7977C95.1592 44.7333 95.1957 44.6458 95.1957 44.5547V36.3302C95.9606 37.2659 96.9183 38.0152 97.999 38.5237C99.0781 39.0325 100.254 39.288 101.441 39.272C106.127 39.272 110.874 35.5571 110.874 28.4277C110.874 21.2985 106.168 17.6049 101.484 17.6049ZM105.647 28.3418C105.726 29.1098 105.648 29.8861 105.421 30.6216C105.193 31.3571 104.82 32.0359 104.325 32.615C103.829 33.1942 103.223 33.6611 102.545 33.9865C101.865 34.3118 101.129 34.4883 100.38 34.5049C99.629 34.4809 98.8914 34.3004 98.2099 33.9744C97.5285 33.6482 96.9183 33.1831 96.4175 32.6071C95.9151 32.0313 95.5311 31.3563 95.2883 30.6233C95.0469 29.8902 94.9513 29.1141 95.0075 28.3418C94.9543 27.5713 95.0515 26.7976 95.2958 26.067C95.5387 25.3365 95.9227 24.6642 96.425 24.0906C96.9259 23.5171 97.536 23.054 98.2145 22.729C98.8944 22.4042 99.6305 22.2244 100.38 22.2004C101.138 22.2138 101.884 22.3898 102.572 22.7173C103.259 23.0448 103.874 23.5165 104.375 24.1023C104.877 24.6882 105.255 25.3754 105.485 26.1202C105.714 26.8648 105.791 27.6507 105.709 28.4277L105.647 28.3418Z" fill="black"/>
<path d="M123.075 17.6061C120.995 17.6445 118.971 18.3174 117.261 19.54C115.55 20.7628 114.23 22.4804 113.465 24.4764C112.7 26.4723 112.525 28.6573 112.963 30.7554C113.401 32.8536 114.432 34.7711 115.924 36.2662C117.417 37.7612 119.307 38.7667 121.353 39.1558C123.399 39.545 125.511 39.3004 127.424 38.453C129.335 37.6055 130.962 36.193 132.095 34.3937C133.231 32.5946 133.823 30.4892 133.798 28.343C133.779 26.9115 133.487 25.4977 132.938 24.1829C132.387 22.8681 131.591 21.678 130.596 20.6807C129.6 19.6833 128.422 18.8983 127.132 18.3708C125.842 17.8433 124.463 17.5834 123.075 17.6061ZM123.075 34.635C122.306 34.6246 121.547 34.4539 120.843 34.133C120.14 33.8123 119.506 33.3481 118.98 32.7683C118.455 32.1887 118.05 31.5054 117.788 30.7597C117.525 30.0139 117.411 29.2211 117.454 28.4289C117.405 27.6477 117.513 26.8645 117.768 26.1276C118.024 25.3908 118.425 24.7158 118.944 24.1445C119.463 23.5731 120.09 23.1174 120.785 22.8054C121.482 22.4934 122.233 22.3317 122.992 22.3304C123.763 22.3353 124.526 22.501 125.234 22.8177C125.942 23.1343 126.581 23.5954 127.113 24.1729C127.642 24.7507 128.055 25.4331 128.324 26.1792C128.592 26.9253 128.712 27.7198 128.676 28.5148C128.724 29.3026 128.615 30.0922 128.356 30.8345C128.096 31.577 127.691 32.2562 127.166 32.8302C126.639 33.4043 126.006 33.8606 125.302 34.1711C124.598 34.4817 123.84 34.6394 123.075 34.635Z" fill="black"/>
<path d="M146.687 18.0361H141.753V12.8395C141.753 12.752 141.721 12.6677 141.662 12.6038C141.604 12.54 141.525 12.5014 141.44 12.4959H136.963C136.875 12.4959 136.79 12.5321 136.727 12.5965C136.665 12.6609 136.63 12.7484 136.63 12.8395V18.0361H134.423C134.382 18.0361 134.342 18.0445 134.304 18.0607C134.266 18.0768 134.231 18.1007 134.202 18.1305C134.173 18.1604 134.15 18.1959 134.135 18.235C134.118 18.274 134.111 18.316 134.111 18.3582V22.3309C134.111 22.4184 134.143 22.5027 134.2 22.5667C134.26 22.6305 134.338 22.669 134.423 22.6745H136.506V32.939C136.506 37.0835 138.587 39.188 142.46 39.188C143.917 39.2305 145.357 38.8589 146.625 38.1143C146.675 38.0893 146.719 38.0497 146.748 38.0001C146.778 37.9505 146.792 37.8932 146.792 37.8351V34.0557C146.792 33.9972 146.779 33.9393 146.754 33.887C146.728 33.8348 146.691 33.7895 146.646 33.755C146.596 33.7227 146.538 33.7055 146.479 33.7055C146.42 33.7055 146.362 33.7227 146.312 33.755C145.498 34.1798 144.6 34.4005 143.688 34.3993C142.252 34.3993 141.607 33.7336 141.607 32.2518V22.6745H146.541C146.629 22.6745 146.714 22.6384 146.776 22.5739C146.839 22.5095 146.874 22.422 146.874 22.3309V18.3582C146.877 18.2916 146.86 18.2257 146.827 18.1684C146.793 18.1113 146.745 18.0653 146.687 18.0361Z" fill="black"/>
<path d="M163.863 18.0581V17.4139C163.863 15.5243 164.55 14.6868 166.112 14.6868C166.98 14.6971 167.841 14.8643 168.653 15.1807C168.698 15.202 168.748 15.2131 168.799 15.2131C168.849 15.2131 168.899 15.202 168.944 15.1807C168.984 15.1474 169.017 15.1047 169.038 15.0563C169.06 15.0078 169.07 14.9549 169.069 14.9015V10.9718C169.072 10.8964 169.052 10.8221 169.011 10.76C168.969 10.698 168.909 10.6517 168.839 10.6282C167.624 10.2983 166.369 10.1537 165.113 10.1987C160.949 10.1987 158.866 12.6038 158.866 17.1348V18.1225H156.784C156.702 18.1225 156.622 18.1564 156.564 18.2169C156.505 18.2774 156.471 18.3592 156.471 18.4446V22.4388C156.471 22.5263 156.503 22.6106 156.562 22.6746C156.62 22.7383 156.699 22.7769 156.784 22.7824H158.866V38.6302C158.866 38.7156 158.9 38.7976 158.957 38.8579C159.017 38.9183 159.096 38.9523 159.179 38.9523H163.571C163.656 38.9524 163.738 38.9191 163.801 38.8593C163.863 38.7994 163.899 38.7175 163.905 38.6302V22.675H168.07L174.482 38.5013C173.754 40.1763 173.025 40.4984 172.047 40.4984C171.183 40.4743 170.339 40.2308 169.589 39.7898C169.547 39.7688 169.501 39.7579 169.454 39.7579C169.407 39.7579 169.362 39.7688 169.319 39.7898C169.277 39.8023 169.239 39.824 169.207 39.8537C169.173 39.8836 169.148 39.9204 169.131 39.9616L167.736 43.3758C167.706 43.4535 167.704 43.54 167.73 43.6191C167.757 43.6981 167.81 43.7644 167.882 43.8053C169.337 44.6662 170.993 45.104 172.67 45.0723C175.961 45.0723 177.793 43.4832 179.417 39.21L187.183 18.509C187.209 18.4595 187.223 18.4042 187.223 18.348C187.223 18.2919 187.209 18.2367 187.183 18.1869C187.151 18.1452 187.11 18.1119 187.063 18.0897C187.016 18.0672 186.964 18.0565 186.913 18.0581H182.124C182.058 18.0625 181.994 18.0846 181.939 18.1223C181.885 18.1599 181.841 18.2119 181.812 18.2728L177.043 32.3382L171.901 18.2728C171.875 18.2089 171.833 18.1541 171.776 18.1159C171.72 18.0775 171.655 18.0574 171.588 18.0581H163.863Z" fill="black"/>
<path d="M153.911 18.0383H149.435C149.252 18.0383 149.101 18.1921 149.101 18.3819V38.5244C149.101 38.7142 149.252 38.868 149.435 38.868H153.911C154.096 38.868 154.245 38.7142 154.245 38.5244V18.3819C154.245 18.1921 154.096 18.0383 153.911 18.0383Z" fill="black"/>
<path d="M151.683 8.84644C151.044 8.84218 150.418 9.03387 149.885 9.39688C149.351 9.76004 148.935 10.2784 148.687 10.8862C148.44 11.4941 148.373 12.1639 148.495 12.811C148.617 13.458 148.923 14.0531 149.373 14.5208C149.824 14.9884 150.399 15.3075 151.025 15.4378C151.651 15.5679 152.301 15.5033 152.893 15.2521C153.483 15.0007 153.989 14.574 154.344 14.0263C154.701 13.4786 154.89 12.8342 154.89 12.1749C154.892 11.7388 154.811 11.3065 154.652 10.9028C154.491 10.499 154.256 10.1321 153.958 9.82257C153.659 9.51325 153.306 9.26772 152.916 9.10019C152.524 8.93266 152.107 8.84644 151.683 8.84644Z" fill="black"/>
<path d="M190.911 24.4999C190.497 24.5028 190.087 24.4208 189.704 24.259C189.322 24.097 188.974 23.8582 188.682 23.5566C188.389 23.2549 188.158 22.8963 188 22.5017C187.844 22.107 187.765 21.684 187.768 21.2575C187.768 20.3917 188.1 19.5615 188.694 18.9493C189.287 18.3373 190.093 17.9934 190.932 17.9934C191.345 17.9906 191.755 18.0725 192.139 18.2344C192.521 18.3964 192.869 18.6351 193.162 18.9367C193.453 19.2384 193.686 19.597 193.842 19.9918C194 20.3864 194.079 20.8094 194.076 21.236C194.076 22.1016 193.743 22.9318 193.15 23.544C192.555 24.156 191.75 24.4999 190.911 24.4999ZM190.911 18.3155C190.345 18.3113 189.791 18.4807 189.319 18.8023C188.847 19.124 188.478 19.5831 188.26 20.1216C188.041 20.66 187.982 21.2534 188.091 21.8261C188.2 22.3986 188.474 22.9249 188.873 23.3376C189.273 23.7504 189.783 24.031 190.339 24.1437C190.894 24.2566 191.47 24.1965 191.992 23.9711C192.514 23.7458 192.959 23.3654 193.271 22.8785C193.582 22.3914 193.746 21.8196 193.743 21.236C193.746 20.8534 193.675 20.4742 193.535 20.12C193.394 19.7658 193.188 19.4437 192.927 19.1721C192.666 18.9007 192.354 18.6852 192.013 18.5382C191.67 18.3912 191.303 18.3155 190.932 18.3155H190.911ZM191.618 21.5794L192.494 22.8679H191.744L190.952 21.687H190.266V22.8679H189.62V19.4537H191.099C191.869 19.4537 192.389 19.8617 192.389 20.5274C192.394 20.7633 192.323 20.9943 192.188 21.1844C192.052 21.3747 191.86 21.5134 191.64 21.5794H191.618ZM191.078 20.0335H190.266V21.1072H191.078C191.494 21.1072 191.744 20.9139 191.744 20.5703C191.744 20.2267 191.515 20.0335 191.099 20.0335H191.078Z" fill="black"/>
</svg>
