<svg width="17" height="18" viewBox="0 0 17 18" fill="none" xmlns="http://www.w3.org/2000/svg">
<path d="M8.58892 0.711182C6.96178 0.711182 5.3712 1.19367 4.01829 2.09763C2.66543 3.00163 1.61098 4.2865 0.988275 5.78973C0.365617 7.293 0.202701 8.94715 0.520157 10.543C0.837564 12.1388 1.62108 13.6047 2.77163 14.7553C3.92219 15.9058 5.38809 16.6893 6.98394 17.0068C8.57978 17.3242 10.2339 17.1613 11.7371 16.5386C13.2404 15.9159 14.5253 14.8615 15.4293 13.5086C16.3332 12.1557 16.8157 10.5651 16.8157 8.93802C16.8157 6.7561 15.949 4.6636 14.4062 3.12078C12.8633 1.57792 10.7708 0.711182 8.58892 0.711182ZM12.3642 12.5754C12.3292 12.6336 12.2829 12.6841 12.2282 12.7243C12.1735 12.7644 12.1113 12.7932 12.0453 12.8091C11.9794 12.825 11.9109 12.8276 11.8439 12.8168C11.7769 12.806 11.7127 12.782 11.6551 12.7461C9.72478 11.5643 7.29546 11.3017 4.43281 11.9517C4.36767 11.9672 4.30014 11.9697 4.23405 11.9589C4.168 11.9481 4.10468 11.9243 4.04792 11.8889C3.99111 11.8535 3.94191 11.8071 3.90314 11.7525C3.86437 11.6979 3.8369 11.6362 3.82221 11.5709C3.80656 11.5053 3.80407 11.4374 3.81474 11.3708C3.82546 11.3043 3.84915 11.2406 3.88452 11.1832C3.91989 11.1259 3.96627 11.0762 4.02088 11.0368C4.07553 10.9974 4.13741 10.9691 4.20298 10.9537C7.33485 10.238 10.0268 10.5466 12.1935 11.8729C12.3091 11.9436 12.392 12.0572 12.4239 12.1889C12.456 12.3206 12.4345 12.4596 12.3642 12.5754ZM13.3687 10.3365C13.277 10.4777 13.1345 10.5781 12.9708 10.6172C12.8071 10.6563 12.6346 10.631 12.4889 10.5466C9.99251 9.15402 7.04539 8.80927 4.29492 9.58799C4.20935 9.63574 4.11415 9.66369 4.01638 9.66982C3.91855 9.67595 3.82063 9.66012 3.72974 9.62347C3.63886 9.58683 3.55735 9.53035 3.49116 9.45807C3.42497 9.38585 3.37577 9.29967 3.3472 9.20597C3.31863 9.11221 3.3114 9.01329 3.32604 8.9164C3.34069 8.8195 3.37682 8.72715 3.43181 8.64604C3.48681 8.56493 3.55927 8.4972 3.64384 8.44771C3.72845 8.39828 3.82302 8.36835 3.92066 8.36023C5.45586 7.9183 7.06391 7.78761 8.65032 7.97594C10.2367 8.16423 11.7695 8.66767 13.1586 9.45672C13.2998 9.54845 13.4002 9.69092 13.4393 9.85463C13.4784 10.0184 13.4532 10.1909 13.3687 10.3365ZM13.4541 8.00568C10.8278 6.42989 6.43537 6.28544 3.90099 7.05364C3.70596 7.11288 3.49537 7.09217 3.31561 6.99609C3.13585 6.90007 3.0016 6.73655 2.9424 6.54151C2.8832 6.34652 2.90387 6.13593 2.99993 5.95614C3.09593 5.7764 3.25947 5.64214 3.4545 5.58295C6.36314 4.70314 11.1889 4.87385 14.242 6.67939C14.3989 6.79173 14.5079 6.95902 14.5471 7.14802C14.5863 7.33698 14.5529 7.53381 14.4536 7.69936C14.3543 7.86485 14.1963 7.9869 14.0112 8.04121C13.826 8.09557 13.627 8.07819 13.4541 7.99255V8.00568Z" fill="#F6F5AE"/>
</svg>
