<svg width="14" height="13" viewBox="0 0 14 13" fill="none" xmlns="http://www.w3.org/2000/svg">
<mask id="path-1-outside-1_5_3659" maskUnits="userSpaceOnUse" x="0.61853" y="-0.0307617" width="13" height="13" fill="black">
<rect fill="white" x="0.61853" y="-0.0307617" width="13" height="13"/>
<path d="M7.1031 0.969238C6.01834 0.969238 4.95795 1.2909 4.05602 1.89353C3.15411 2.4962 2.45114 3.35278 2.03601 4.35493C1.6209 5.35712 1.51229 6.45988 1.72393 7.52377C1.93553 8.58768 2.45788 9.56492 3.22491 10.332C3.99195 11.099 4.96922 11.6213 6.03311 11.833C7.09701 12.0446 8.19977 11.936 9.20192 11.5209C10.2041 11.1057 11.0607 10.4028 11.6633 9.50084C12.266 8.59892 12.5876 7.53854 12.5876 6.4538C12.5876 4.99919 12.0098 3.60418 10.9813 2.57564C9.95269 1.54706 8.5577 0.969238 7.1031 0.969238ZM9.61993 8.87873C9.59661 8.91748 9.56579 8.95121 9.52932 8.97796C9.49282 9.00471 9.45137 9.02392 9.40737 9.03451C9.3634 9.0451 9.31775 9.04684 9.27308 9.03963C9.22841 9.03242 9.18562 9.01642 9.1472 8.99254C7.86034 8.20465 6.24079 8.02956 4.33236 8.4629C4.28894 8.47326 4.24392 8.47491 4.19985 8.4677C4.15582 8.46052 4.11361 8.44465 4.07577 8.42106C4.0379 8.39744 4.00509 8.36654 3.97925 8.33014C3.9534 8.29374 3.93509 8.25257 3.9253 8.20902C3.91486 8.16535 3.9132 8.12003 3.92032 8.07568C3.92746 8.03133 3.94326 7.98884 3.96684 7.95061C3.99042 7.9124 4.02133 7.87922 4.05774 7.85296C4.09418 7.82669 4.13543 7.80787 4.17915 7.79757C6.26705 7.32045 8.06168 7.52618 9.50615 8.41037C9.58321 8.45749 9.63847 8.53326 9.65978 8.62103C9.68113 8.70883 9.6668 8.80149 9.61993 8.87873ZM10.2897 7.38611C10.2285 7.48022 10.1335 7.5472 10.0244 7.57327C9.9152 7.59934 9.8002 7.58247 9.70311 7.52618C8.03883 6.5978 6.07408 6.36796 4.24044 6.88711C4.18339 6.91894 4.11993 6.93758 4.05474 6.94166C3.98952 6.94575 3.92424 6.93519 3.86365 6.91077C3.80306 6.88634 3.74873 6.84868 3.7046 6.8005C3.66047 6.75235 3.62767 6.6949 3.60862 6.63243C3.58957 6.56992 3.58476 6.50398 3.59452 6.43938C3.60428 6.37479 3.62837 6.31321 3.66503 6.25914C3.70169 6.20507 3.75 6.15992 3.80638 6.12693C3.86279 6.09397 3.92584 6.07401 3.99093 6.06861C5.0144 5.77398 6.08643 5.68686 7.14404 5.81241C8.20165 5.93793 9.22352 6.27356 10.1496 6.7996C10.2437 6.86075 10.3106 6.95573 10.3367 7.06487C10.3628 7.17404 10.3459 7.28904 10.2897 7.38611ZM10.3465 5.83224C8.5957 4.78171 5.6674 4.68541 3.97782 5.19755C3.8478 5.23704 3.70741 5.22323 3.58756 5.15918C3.46772 5.09516 3.37822 4.98615 3.33876 4.85612C3.29929 4.72613 3.31307 4.58574 3.37711 4.46588C3.44111 4.34605 3.55014 4.25654 3.68016 4.21709C5.61925 3.63054 8.83643 3.74435 10.8718 4.94805C10.9764 5.02294 11.0491 5.13446 11.0752 5.26047C11.1014 5.38644 11.0791 5.51766 11.0129 5.62802C10.9467 5.73835 10.8414 5.81972 10.7179 5.85593C10.5945 5.89217 10.4619 5.88058 10.3465 5.82348V5.83224Z"/>
</mask>
<path d="M7.1031 0.969238C6.01834 0.969238 4.95795 1.2909 4.05602 1.89353C3.15411 2.4962 2.45114 3.35278 2.03601 4.35493C1.6209 5.35712 1.51229 6.45988 1.72393 7.52377C1.93553 8.58768 2.45788 9.56492 3.22491 10.332C3.99195 11.099 4.96922 11.6213 6.03311 11.833C7.09701 12.0446 8.19977 11.936 9.20192 11.5209C10.2041 11.1057 11.0607 10.4028 11.6633 9.50084C12.266 8.59892 12.5876 7.53854 12.5876 6.4538C12.5876 4.99919 12.0098 3.60418 10.9813 2.57564C9.95269 1.54706 8.5577 0.969238 7.1031 0.969238ZM9.61993 8.87873C9.59661 8.91748 9.56579 8.95121 9.52932 8.97796C9.49282 9.00471 9.45137 9.02392 9.40737 9.03451C9.3634 9.0451 9.31775 9.04684 9.27308 9.03963C9.22841 9.03242 9.18562 9.01642 9.1472 8.99254C7.86034 8.20465 6.24079 8.02956 4.33236 8.4629C4.28894 8.47326 4.24392 8.47491 4.19985 8.4677C4.15582 8.46052 4.11361 8.44465 4.07577 8.42106C4.0379 8.39744 4.00509 8.36654 3.97925 8.33014C3.9534 8.29374 3.93509 8.25257 3.9253 8.20902C3.91486 8.16535 3.9132 8.12003 3.92032 8.07568C3.92746 8.03133 3.94326 7.98884 3.96684 7.95061C3.99042 7.9124 4.02133 7.87922 4.05774 7.85296C4.09418 7.82669 4.13543 7.80787 4.17915 7.79757C6.26705 7.32045 8.06168 7.52618 9.50615 8.41037C9.58321 8.45749 9.63847 8.53326 9.65978 8.62103C9.68113 8.70883 9.6668 8.80149 9.61993 8.87873ZM10.2897 7.38611C10.2285 7.48022 10.1335 7.5472 10.0244 7.57327C9.9152 7.59934 9.8002 7.58247 9.70311 7.52618C8.03883 6.5978 6.07408 6.36796 4.24044 6.88711C4.18339 6.91894 4.11993 6.93758 4.05474 6.94166C3.98952 6.94575 3.92424 6.93519 3.86365 6.91077C3.80306 6.88634 3.74873 6.84868 3.7046 6.8005C3.66047 6.75235 3.62767 6.6949 3.60862 6.63243C3.58957 6.56992 3.58476 6.50398 3.59452 6.43938C3.60428 6.37479 3.62837 6.31321 3.66503 6.25914C3.70169 6.20507 3.75 6.15992 3.80638 6.12693C3.86279 6.09397 3.92584 6.07401 3.99093 6.06861C5.0144 5.77398 6.08643 5.68686 7.14404 5.81241C8.20165 5.93793 9.22352 6.27356 10.1496 6.7996C10.2437 6.86075 10.3106 6.95573 10.3367 7.06487C10.3628 7.17404 10.3459 7.28904 10.2897 7.38611ZM10.3465 5.83224C8.5957 4.78171 5.6674 4.68541 3.97782 5.19755C3.8478 5.23704 3.70741 5.22323 3.58756 5.15918C3.46772 5.09516 3.37822 4.98615 3.33876 4.85612C3.29929 4.72613 3.31307 4.58574 3.37711 4.46588C3.44111 4.34605 3.55014 4.25654 3.68016 4.21709C5.61925 3.63054 8.83643 3.74435 10.8718 4.94805C10.9764 5.02294 11.0491 5.13446 11.0752 5.26047C11.1014 5.38644 11.0791 5.51766 11.0129 5.62802C10.9467 5.73835 10.8414 5.81972 10.7179 5.85593C10.5945 5.89217 10.4619 5.88058 10.3465 5.82348V5.83224Z" fill="#1ED760"/>
<path d="M4.05602 1.89353L3.67514 1.3235L3.67512 1.32352L4.05602 1.89353ZM2.03601 4.35493L1.40263 4.09256L1.40262 4.09259L2.03601 4.35493ZM1.72393 7.52377L2.39633 7.39003L2.39632 7.39001L1.72393 7.52377ZM3.22491 10.332L2.74014 10.8167L2.74015 10.8167L3.22491 10.332ZM9.20192 11.5209L8.93956 10.8875L8.93956 10.8875L9.20192 11.5209ZM10.9813 2.57564L10.4965 3.06041V3.06041L10.9813 2.57564ZM9.61993 8.87873L9.03382 8.52309L9.03255 8.5252L9.61993 8.87873ZM9.52932 8.97796L9.93452 9.53096L9.93475 9.53079L9.52932 8.97796ZM9.40737 9.03451L9.24696 8.36797L9.24685 8.368L9.40737 9.03451ZM9.1472 8.99254L9.50916 8.41029L9.50518 8.40786L9.1472 8.99254ZM4.33236 8.4629L4.18055 7.79431L4.17322 7.79606L4.33236 8.4629ZM4.19985 8.4677L4.31055 7.79112L4.31015 7.79106L4.19985 8.4677ZM4.07577 8.42106L3.71293 9.00274L3.71307 9.00283L4.07577 8.42106ZM3.9253 8.20902L4.59421 8.05856L4.5921 8.04973L3.9253 8.20902ZM3.92032 8.07568L3.24348 7.96661L3.2434 7.96708L3.92032 8.07568ZM3.96684 7.95061L3.38344 7.59054L3.3833 7.59076L3.96684 7.95061ZM4.05774 7.85296L3.65687 7.2968L3.65664 7.29697L4.05774 7.85296ZM4.17915 7.79757L4.02642 7.12921L4.02192 7.13027L4.17915 7.79757ZM9.50615 8.41037L9.14823 8.9951L9.1485 8.99526L9.50615 8.41037ZM9.65978 8.62103L8.99358 8.78281L8.99362 8.78298L9.65978 8.62103ZM10.2897 7.38611L10.8645 7.75971L10.874 7.74508L10.8827 7.72999L10.2897 7.38611ZM9.70311 7.52618L10.047 6.933L10.0371 6.92746L9.70311 7.52618ZM4.24044 6.88711L4.05368 6.22747L3.97647 6.24933L3.9064 6.28843L4.24044 6.88711ZM4.05474 6.94166L4.09763 7.62589L4.09765 7.62589L4.05474 6.94166ZM3.7046 6.8005L4.21017 6.33747L4.21002 6.3373L3.7046 6.8005ZM3.60862 6.63243L2.95283 6.83228L2.95286 6.83238L3.60862 6.63243ZM3.80638 6.12693L3.46054 5.53498L3.46014 5.53521L3.80638 6.12693ZM3.99093 6.06861L4.04768 6.75182L4.11534 6.7462L4.18058 6.72742L3.99093 6.06861ZM7.14404 5.81241L7.06322 6.4932L7.06324 6.4932L7.14404 5.81241ZM10.1496 6.7996L10.5232 6.22476L10.506 6.2136L10.4882 6.20349L10.1496 6.7996ZM10.3367 7.06487L11.0035 6.90565L11.0035 6.9056L10.3367 7.06487ZM10.3465 5.83224L9.99382 6.42011L11.0321 7.0431V5.83224H10.3465ZM3.97782 5.19755L3.77895 4.54145L3.77857 4.54157L3.97782 5.19755ZM3.58756 5.15918L3.91071 4.55455L3.91058 4.55448L3.58756 5.15918ZM3.33876 4.85612L3.99477 4.657L3.99476 4.65695L3.33876 4.85612ZM3.37711 4.46588L3.98179 4.78894L3.98182 4.78888L3.37711 4.46588ZM3.68016 4.21709L3.48167 3.56088L3.48106 3.56106L3.68016 4.21709ZM10.8718 4.94805L11.2709 4.39059L11.2466 4.37317L11.2208 4.35794L10.8718 4.94805ZM11.0752 5.26047L11.7465 5.12122L11.7465 5.12109L11.0752 5.26047ZM11.0129 5.62802L11.6008 5.98078L11.6008 5.9807L11.0129 5.62802ZM10.7179 5.85593L10.525 5.19807L10.5249 5.1981L10.7179 5.85593ZM10.3465 5.82348L10.6508 5.20911L9.66097 4.71901V5.82348H10.3465ZM7.1031 0.283669C5.88275 0.283669 4.68982 0.645535 3.67514 1.3235L4.43689 2.46357C5.22609 1.93626 6.15393 1.65481 7.1031 1.65481V0.283669ZM3.67512 1.32352C2.66048 2.00151 1.86965 2.96515 1.40263 4.09256L2.66938 4.61731C3.03263 3.74041 3.64774 2.99089 4.43691 2.46355L3.67512 1.32352ZM1.40262 4.09259C0.935629 5.22004 0.81344 6.46065 1.05153 7.65752L2.39632 7.39001C2.21114 6.45912 2.30617 5.4942 2.66939 4.61728L1.40262 4.09259ZM1.05153 7.6575C1.28959 8.85441 1.87723 9.95381 2.74014 10.8167L3.70968 9.84719C3.03853 9.17603 2.58148 8.32095 2.39633 7.39003L1.05153 7.6575ZM2.74015 10.8167C3.60306 11.6796 4.70248 12.2673 5.89937 12.5054L6.16686 11.1606C5.23595 10.9754 4.38084 10.5183 3.70967 9.84718L2.74015 10.8167ZM5.89937 12.5054C7.09624 12.7434 8.33685 12.6213 9.46429 12.1542L8.93956 10.8875C8.06269 11.2507 7.09778 11.3457 6.16686 11.1606L5.89937 12.5054ZM9.46428 12.1542C10.5917 11.6872 11.5554 10.8964 12.2334 9.88173L11.0933 9.11996C10.566 9.90914 9.81649 10.5242 8.93956 10.8875L9.46428 12.1542ZM12.2334 9.88173C12.9113 8.86705 13.2732 7.67413 13.2732 6.4538H11.9021C11.9021 7.40295 11.6206 8.33078 11.0933 9.11996L12.2334 9.88173ZM13.2732 6.4538C13.2732 4.81737 12.6231 3.24798 11.466 2.09087L10.4965 3.06041C11.3965 3.96038 11.9021 5.18101 11.9021 6.4538H13.2732ZM11.466 2.09087C10.3089 0.933722 8.73952 0.283669 7.1031 0.283669V1.65481C8.37587 1.65481 9.59649 2.1604 10.4965 3.06041L11.466 2.09087ZM9.03255 8.5252C9.05619 8.48592 9.08728 8.45197 9.12388 8.42513L9.93475 9.53079C10.0443 9.45046 10.137 9.34905 10.2073 9.23227L9.03255 8.5252ZM9.12411 8.42496C9.16094 8.39797 9.20271 8.37862 9.24696 8.36797L9.56778 9.70105C9.70003 9.66922 9.82469 9.61144 9.93452 9.53096L9.12411 8.42496ZM9.24685 8.368C9.29131 8.35729 9.33735 8.35556 9.38231 8.36282L9.16384 9.71644C9.29815 9.73812 9.4355 9.73291 9.56789 9.70102L9.24685 8.368ZM9.38231 8.36282C9.42713 8.37005 9.47027 8.38614 9.50916 8.41031L8.78525 9.57478C8.90097 9.64671 9.02968 9.69479 9.16384 9.71644L9.38231 8.36282ZM9.50518 8.40786C8.02345 7.50065 6.208 7.33398 4.18056 7.79435L4.48417 9.13145C6.27358 8.72513 7.69724 8.90864 8.78922 9.57723L9.50518 8.40786ZM4.17322 7.79606C4.21803 7.78536 4.26473 7.78363 4.31055 7.79112L4.08915 9.14427C4.2231 9.16618 4.35985 9.16116 4.49151 9.12974L4.17322 7.79606ZM4.31015 7.79106C4.35568 7.79848 4.39927 7.81485 4.43847 7.83929L3.71307 9.00283C3.82795 9.07445 3.95596 9.12256 4.08956 9.14433L4.31015 7.79106ZM4.4386 7.83938C4.4777 7.86376 4.51157 7.89567 4.53826 7.93325L3.42024 8.72702C3.49861 8.8374 3.5981 8.93111 3.71293 9.00274L4.4386 7.83938ZM4.53826 7.93325C4.56519 7.97118 4.58409 8.01384 4.59415 8.05857L3.25644 8.35948C3.28609 8.4913 3.34162 8.61629 3.42024 8.72702L4.53826 7.93325ZM4.5921 8.04973C4.60276 8.09434 4.60432 8.14006 4.59723 8.18428L3.2434 7.96708C3.22208 8.1 3.22697 8.23636 3.25849 8.36831L4.5921 8.04973ZM4.59715 8.18475C4.58999 8.2292 4.57412 8.27195 4.55037 8.31046L3.3833 7.59076C3.3124 7.70574 3.26494 7.83345 3.24348 7.96661L4.59715 8.18475ZM4.55024 8.31068C4.52635 8.34938 4.49524 8.38269 4.45884 8.40895L3.65664 7.29697C3.54743 7.37575 3.45448 7.47543 3.38344 7.59054L4.55024 8.31068ZM4.45861 8.40912C4.422 8.4355 4.38048 8.45447 4.33637 8.46486L4.02192 7.13027C3.89039 7.16126 3.76635 7.21789 3.65687 7.2968L4.45861 8.40912ZM4.33187 8.46591C6.29394 8.01755 7.89444 8.22762 9.14824 8.9951L9.86407 7.82565C8.22891 6.82474 6.24017 6.62335 4.02642 7.12923L4.33187 8.46591ZM9.1485 8.99526C9.07081 8.94775 9.01509 8.87139 8.99358 8.78281L10.326 8.45925C10.2619 8.19513 10.0956 7.96724 9.86381 7.82549L9.1485 8.99526ZM8.99362 8.78298C8.97211 8.69449 8.98654 8.60102 9.03382 8.52309L10.206 9.23438C10.3471 9.00196 10.3902 8.72317 10.3259 8.45907L8.99362 8.78298ZM9.71482 7.01251C9.74954 6.9591 9.80338 6.92119 9.86509 6.90645L10.1836 8.24008C10.4636 8.1732 10.7074 8.00134 10.8645 7.75971L9.71482 7.01251ZM9.86509 6.90645C9.92697 6.89167 9.99207 6.90126 10.047 6.93309L9.35925 8.11928C9.60833 8.26369 9.90343 8.307 10.1836 8.24008L9.86509 6.90645ZM10.0371 6.92746C8.21415 5.91058 6.06211 5.65884 4.05368 6.22747L4.4272 7.54675C6.08605 7.07709 7.86351 7.28502 9.36913 8.1249L10.0371 6.92746ZM3.9064 6.28843C3.93885 6.27032 3.97487 6.25976 4.01184 6.25744L4.09765 7.62589C4.26498 7.6154 4.42793 7.56756 4.57448 7.48579L3.9064 6.28843ZM4.01186 6.25744C4.04874 6.25513 4.0857 6.2611 4.12 6.27493L3.6073 7.5466C3.76278 7.60929 3.93031 7.63638 4.09763 7.62589L4.01186 6.25744ZM4.12 6.27493C4.15424 6.28873 4.18509 6.31008 4.21017 6.33747L3.19902 7.26353C3.31236 7.38728 3.45188 7.48394 3.6073 7.5466L4.12 6.27493ZM4.21002 6.3373C4.23506 6.36462 4.25361 6.39713 4.26438 6.43248L2.95286 6.83238C3.00173 6.99267 3.08588 7.14008 3.19918 7.2637L4.21002 6.3373ZM4.26441 6.43257C4.27518 6.46791 4.27792 6.50525 4.27239 6.54184L2.91665 6.33692C2.89159 6.5027 2.90397 6.67194 2.95283 6.83228L4.26441 6.43257ZM4.27239 6.54184C4.26686 6.57841 4.25321 6.61328 4.23247 6.64387L3.09759 5.87441C3.00353 6.01315 2.9417 6.17116 2.91665 6.33692L4.27239 6.54184ZM4.23247 6.64387C4.21162 6.67463 4.18427 6.70012 4.15262 6.71864L3.46014 5.53521C3.31573 5.61972 3.19177 5.73551 3.09759 5.87441L4.23247 6.64387ZM4.15222 6.71887C4.1206 6.73735 4.08492 6.74873 4.04768 6.75182L3.93417 5.38539C3.76676 5.3993 3.60499 5.45059 3.46054 5.53498L4.15222 6.71887ZM4.18058 6.72742C5.11627 6.45807 6.09634 6.37842 7.06322 6.4932L7.22486 5.13162C6.07651 4.9953 4.91253 5.0899 3.80128 5.40979L4.18058 6.72742ZM7.06324 6.4932C8.03013 6.60796 8.96435 6.9148 9.81097 7.39571L10.4882 6.20349C9.48269 5.63233 8.37316 5.26791 7.22484 5.13162L7.06324 6.4932ZM9.77599 7.37443C9.72255 7.3397 9.68464 7.28584 9.6699 7.22414L11.0035 6.9056C10.9367 6.62562 10.7648 6.3818 10.5232 6.22476L9.77599 7.37443ZM9.66989 7.22409C9.65516 7.16237 9.66466 7.09726 9.69657 7.04223L10.8827 7.72999C11.0272 7.48082 11.0704 7.18571 11.0035 6.90565L9.66989 7.22409ZM10.6993 5.24437C9.70082 4.64529 8.41578 4.34158 7.19294 4.24543C5.96703 4.14905 4.72378 4.25506 3.77895 4.54145L4.17668 5.85364C4.92143 5.6279 5.98713 5.526 7.08547 5.61235C8.18689 5.69896 9.24141 5.96866 9.99382 6.42011L10.6993 5.24437ZM3.77857 4.54157C3.82263 4.52819 3.87015 4.53287 3.91071 4.55455L3.26442 5.76381C3.54466 5.91359 3.87296 5.94589 4.17706 5.85352L3.77857 4.54157ZM3.91058 4.55448C3.95116 4.57615 3.98143 4.61305 3.99477 4.657L2.68274 5.05525C2.77502 5.35926 2.98429 5.61417 3.26455 5.76388L3.91058 4.55448ZM3.99476 4.65695C4.00811 4.70093 4.00345 4.7484 3.98179 4.78894L2.77243 4.14282C2.62269 4.42308 2.59047 4.75132 2.68276 5.05529L3.99476 4.65695ZM3.98182 4.78888C3.96012 4.82949 3.92322 4.85976 3.87925 4.87311L3.48106 3.56106C3.17705 3.65333 2.9221 3.86261 2.7724 4.14287L3.98182 4.78888ZM3.87865 4.87329C4.74981 4.60978 5.95027 4.49439 7.18442 4.59455C8.4203 4.69485 9.62278 5.00586 10.5228 5.53815L11.2208 4.35794C10.0855 3.68653 8.66167 3.33879 7.29534 3.2279C5.92728 3.11687 4.5496 3.23785 3.48167 3.56088L3.87865 4.87329ZM10.4728 5.5055C10.4374 5.48018 10.4128 5.44246 10.404 5.39984L11.7465 5.12109C11.6853 4.82647 11.5155 4.56571 11.2709 4.39059L10.4728 5.5055ZM10.4039 5.39972C10.3951 5.35704 10.4026 5.31265 10.425 5.27535L11.6008 5.9807C11.7556 5.72267 11.8076 5.41584 11.7465 5.12122L10.4039 5.39972ZM10.4251 5.27527C10.4475 5.23789 10.4832 5.21034 10.525 5.19807L10.9109 6.51378C11.1996 6.4291 11.4459 6.23882 11.6008 5.98078L10.4251 5.27527ZM10.5249 5.1981C10.5667 5.18582 10.6117 5.18974 10.6508 5.20911L10.0423 6.43786C10.3121 6.57142 10.6222 6.59851 10.911 6.51375L10.5249 5.1981ZM9.66097 5.82348V5.83224H11.0321V5.82348H9.66097Z" fill="black" mask="url(#path-1-outside-1_5_3659)"/>
</svg>
