<svg width="137" height="119" viewBox="0 0 137 119" fill="none" xmlns="http://www.w3.org/2000/svg">
<path d="M58.7948 41.6958C57.0564 38.951 55.7917 36.9366 54.5171 34.9466C49.3994 26.8935 44.2229 18.8451 39.1837 10.7386C37.9727 8.80261 36.9777 6.61317 36.4678 4.42068C36.196 3.11901 36.7143 1.19933 37.6125 0.312808C38.1377 -0.213288 40.4782 0.333422 41.3829 1.12408C43.608 3.01501 45.6317 5.19366 47.4397 7.48397C53.0539 14.6588 58.5357 21.9504 64.2863 29.4924C66.7834 25.2772 69.1726 21.0469 71.787 16.9641C73.8018 13.8033 76.0614 10.7411 78.3648 7.7818C79.853 5.85601 81.9083 4.49957 84.3793 5.92202C86.9482 7.38396 86.9628 9.88752 85.939 12.2845C82.9364 19.4462 79.7968 26.5244 76.7452 33.6664C76.007 35.3554 75.3667 37.0839 74.6775 38.7927C74.8482 39.1454 77.9759 38.0228 79.4761 37.4075C92.3018 32.1361 105.108 26.9134 117.992 21.7791C119.791 21.0574 121.854 20.6691 123.794 20.6569C124.823 20.6461 126.379 21.5859 126.71 22.4575C127.042 23.3291 126.495 25.0384 125.734 25.725C124.291 27.0446 122.516 28.0599 120.726 28.899C108.904 34.5752 97.0521 40.1828 85.2152 45.8248C83.9158 46.4359 82.5968 47.0959 80.65 48.0421C86.9947 50.0904 92.7472 51.8431 98.4209 53.791C109.832 57.741 121.228 61.7985 132.61 65.8217C133.305 66.0737 134.039 66.3699 134.577 66.7288C138.094 69.0843 136.206 72.7786 133.121 72.1019C129.351 71.2907 125.497 70.616 121.776 69.5409C108.464 65.6473 95.2113 61.6072 81.9289 57.6404C81.6499 57.5562 81.3658 57.5551 80.4695 57.4491C82.8811 61.6291 85.1121 65.4808 87.3529 69.3081C91.5659 76.5704 95.8819 83.7892 99.9577 91.1098C101.041 93.0795 101.762 95.3853 102.061 97.6063C102.394 99.9546 100.584 101.126 98.6862 99.7645C96.3823 98.0689 94.1625 95.9531 92.585 93.5854C84.8779 82.0754 77.4063 70.4049 69.8562 58.7878C69.0162 57.484 68.1762 56.1802 66.9652 54.2442C64.363 59.6374 62.0606 64.4988 59.6603 69.3207C52.5088 83.6644 45.3572 98.008 38.1567 112.332C37.3501 113.908 36.3624 115.44 35.2428 116.805C33.7155 118.686 31.6759 119.51 29.3709 118.381C27.2127 117.312 26.5162 115.3 26.9714 113.043C27.4117 110.893 28.0431 108.763 28.8848 106.747C34.3684 93.5756 39.9156 80.458 45.4482 67.3062C45.8666 66.3397 46.2261 65.3778 46.9055 63.6934C45.3465 64.3134 44.2778 64.7054 43.2138 65.1561C31.339 70.1867 19.4543 75.2417 7.55498 80.2624C6.21648 80.8294 4.75562 81.3471 3.3153 81.3905C2.3355 81.421 0.87691 80.8043 0.447367 80.035C0.0178226 79.2657 0.451923 77.7662 0.796549 76.9118C1.90414 74.2365 3.83057 73.6228 5.72354 72.5982C16.8656 66.5625 28.1005 60.6494 39.3646 54.8048C43.4299 52.6981 47.6513 50.9098 52.7164 48.5819C45.7787 46.6634 39.732 45.0758 33.764 43.293C28.0261 41.5746 22.367 39.6609 16.6539 37.8106C16.0468 37.6225 15.4744 37.278 14.9655 36.9876C12.2888 35.5106 15.0809 33.1741 15.9673 33.3046C22.0743 34.1785 28.2105 35.1209 34.2531 36.3662C41.3972 37.9139 57.0707 41.5964 58.7948 41.6958Z" fill="#CF9893"/>
</svg>
