<svg width="101" height="105" viewBox="0 0 101 105" fill="none" xmlns="http://www.w3.org/2000/svg">
<path d="M35.8351 3.34706C36.7643 -0.480169 42.3252 -0.102644 42.7287 3.81506L45.1937 27.7522C45.4669 30.4054 48.4855 31.7936 50.6777 30.2742L75.5182 13.0568C78.6311 10.8991 82.4794 14.5273 80.5087 17.7618L68.474 37.5145C67.2388 39.5419 68.3336 42.1849 70.6405 42.745L98.0099 49.3903C101.375 50.2073 101.644 54.8895 98.3944 56.0863L70.1266 66.4977C67.9532 67.2982 67.1397 69.9488 68.4899 71.8307L79.0703 86.578C81.2966 89.6811 77.6596 93.6022 74.3981 91.6151L55.2342 79.9392C53.2069 78.704 50.5639 79.7988 50.0038 82.1057L45.2485 101.691C44.3261 105.49 38.8173 105.156 38.3605 101.273L34.9643 72.4047C34.6403 69.6513 31.3994 68.3458 29.2573 70.1059L10.7236 85.3346C7.60107 87.9003 3.33236 84.0178 5.59138 80.6667L22.8741 55.0292C24.4913 52.6302 22.6702 49.4155 19.7811 49.5692L4.06849 50.4052C-0.11594 50.6279 -1.09401 44.6498 2.9432 43.5273L16.3342 39.8042C18.799 39.1189 19.7233 36.1095 18.0681 34.1588L6.21959 20.1945C3.64446 17.1595 7.31744 12.862 10.7165 14.9329L26.0494 24.2747C28.0767 25.5099 30.7197 24.4151 31.2798 22.1082L35.8351 3.34706Z" fill="#CF9893"/>
</svg>
