<svg width="46" height="46" viewBox="0 0 46 46" fill="none" xmlns="http://www.w3.org/2000/svg">
<path d="M15.9183 16.3187C14.9899 15.6503 14.3122 15.1583 13.6345 14.6755C10.9051 12.7167 8.1571 10.7671 5.44624 8.78034C4.79638 8.30687 4.18365 7.72199 3.72875 7.07213C3.4688 6.68221 3.38525 5.98593 3.56164 5.57745C3.66376 5.33607 4.4993 5.2061 4.8985 5.34535C5.87329 5.67028 6.82024 6.1159 7.71148 6.62651C10.4873 8.2326 13.2353 9.89439 16.104 11.6026C16.3639 9.89439 16.5867 8.19546 16.9024 6.5151C17.1438 5.21538 17.478 3.91566 17.84 2.64378C18.0721 1.81753 18.5642 1.10268 19.5575 1.24194C20.588 1.38119 20.9222 2.19816 20.9037 3.11725C20.8665 5.85596 20.7737 8.58538 20.718 11.3241C20.6994 11.9739 20.718 12.6238 20.718 13.2737C20.8201 13.3665 21.6928 12.5867 22.1013 12.1875C25.592 8.77106 29.0827 5.3732 32.6105 1.99392C33.1025 1.52045 33.7245 1.12125 34.3558 0.861302C34.69 0.722046 35.3213 0.824168 35.5442 1.06555C35.767 1.30692 35.8134 1.93822 35.6556 2.26315C35.3585 2.88516 34.9129 3.45147 34.4394 3.96207C31.3293 7.37849 28.2007 10.7763 25.0814 14.1835C24.7379 14.5548 24.3944 14.9447 23.8838 15.5111C26.2233 15.3439 28.3307 15.1583 30.4381 15.0469C34.6808 14.8333 38.9327 14.657 43.1754 14.4713C43.4353 14.462 43.7138 14.462 43.9367 14.5084C45.3942 14.8148 45.2642 16.2723 44.1688 16.458C42.8319 16.6901 41.4858 16.9779 40.1303 17.1171C35.2749 17.5999 30.4195 18.027 25.5641 18.4819C25.462 18.4911 25.3692 18.5283 25.0628 18.6118C26.3997 19.6609 27.6344 20.6264 28.8691 21.5826C31.1994 23.4022 33.5574 25.194 35.8505 27.0508C36.4632 27.5521 37.0017 28.2112 37.3916 28.8982C37.8094 29.6224 37.3731 30.2444 36.5746 30.0494C35.5999 29.7987 34.5972 29.3995 33.771 28.8332C29.7418 26.0852 25.7684 23.2537 21.7764 20.45C21.3307 20.1344 20.8851 19.8187 20.2353 19.3452C20.096 21.4527 19.9846 23.3465 19.8361 25.2404C19.3904 30.8757 18.9448 36.5109 18.4806 42.1461C18.4249 42.7681 18.3042 43.3994 18.1186 43.9936C17.8679 44.8106 17.3109 45.349 16.4103 45.284C15.5655 45.219 15.0735 44.6527 14.9249 43.8543C14.7857 43.0931 14.7114 42.3132 14.7207 41.5427C14.7764 36.5109 14.86 31.4884 14.9342 26.4566C14.9435 26.0852 14.9342 25.7232 14.9342 25.0826C14.5072 25.4911 14.2101 25.7603 13.9223 26.0481C10.7101 29.2603 7.49795 32.4817 4.27649 35.6939C3.91442 36.056 3.50594 36.4181 3.04175 36.6223C2.7261 36.7616 2.16908 36.7523 1.9277 36.5573C1.68632 36.3624 1.63062 35.8146 1.63062 35.4897C1.63991 34.4685 2.18765 34.0136 2.6704 33.4287C5.51123 29.9844 8.39847 26.568 11.3043 23.1701C12.3534 21.9447 13.4953 20.8028 14.8414 19.3731C12.3255 19.6609 10.1438 19.9394 7.96214 20.1436C5.86401 20.3386 3.76588 20.4593 1.65847 20.6078C1.43566 20.6264 1.20357 20.5893 0.999326 20.5614C-0.0683048 20.4314 0.535139 19.2988 0.841503 19.2246C2.94891 18.7047 5.07489 18.2033 7.21015 17.8134C9.74462 17.3771 15.3427 16.5137 15.9183 16.3187Z" fill="#F6F5AE"/>
</svg>
