<svg width="17" height="18" viewBox="0 0 17 18" fill="none" xmlns="http://www.w3.org/2000/svg">
<path d="M4.51049 10.8983C4.59084 10.233 4.8637 9.86052 5.37789 9.47867C6.1136 8.96152 7.03262 9.25405 7.03262 9.25405V7.51862C7.25604 7.51291 7.47955 7.52616 7.70054 7.5582V9.79153C7.70054 9.79153 6.7818 9.49899 6.04609 10.0164C5.53217 10.398 5.25876 10.7707 5.17869 11.436C5.17617 11.7973 5.24397 12.2695 5.55617 12.6779C5.47898 12.6383 5.4003 12.5932 5.32014 12.5425C4.63241 12.0807 4.50714 11.3879 4.51049 10.8983ZM11.4952 4.30981C10.9891 3.75522 10.7977 3.19529 10.7285 2.80194H11.3652C11.3652 2.80194 11.2382 3.83331 12.1634 4.84756L12.1762 4.86119C11.9269 4.70435 11.6982 4.51922 11.4952 4.30981ZM14.5622 5.88213V8.07054C14.5622 8.07054 13.7497 8.03872 13.1485 7.88576C12.309 7.67184 11.7694 7.34374 11.7694 7.34374C11.7694 7.34374 11.3967 7.10977 11.3666 7.09345V11.6125C11.3666 11.8642 11.2976 12.4925 11.0876 13.0166C10.8133 13.7023 10.3901 14.1523 10.3122 14.2443C10.3122 14.2443 9.79747 14.8526 8.88934 15.2623C8.07077 15.6318 7.35207 15.6225 7.13724 15.6318C7.13724 15.6318 5.89487 15.681 4.77693 14.9545C4.53518 14.7944 4.30952 14.613 4.10287 14.4127L4.10845 14.4168C5.22667 15.1433 6.46877 15.0941 6.46877 15.0941C6.68387 15.0847 7.40257 15.0941 8.22087 14.7245C9.12816 14.3149 9.64375 13.7065 9.64375 13.7065C9.72075 13.6146 10.1459 13.1645 10.4191 12.4786C10.6286 11.9548 10.6981 11.3261 10.6981 11.0745V6.55598C10.7282 6.57256 11.1007 6.80653 11.1007 6.80653C11.1007 6.80653 11.6405 7.1349 12.48 7.34856C13.0815 7.50151 13.8937 7.53333 13.8937 7.53333V5.81849C14.1716 5.88079 14.4085 5.89764 14.5622 5.88213Z" fill="#F6F5AE"/>
<path d="M13.8941 5.81849V7.53279C13.8941 7.53279 13.082 7.50097 12.4805 7.34802C11.641 7.1341 11.1011 6.806 11.1011 6.806C11.1011 6.806 10.7286 6.57202 10.6985 6.55544V11.0751C10.6985 11.3267 10.6296 11.9553 10.4195 12.4792C10.1453 13.1651 9.72202 13.6151 9.64418 13.7071C9.64418 13.7071 9.12915 14.3154 8.22129 14.7251C7.403 15.0946 6.6843 15.0853 6.4692 15.0946C6.4692 15.0946 5.2271 15.1438 4.10888 14.4173L4.1033 14.4133C3.98524 14.299 3.87411 14.1783 3.77046 14.0518C3.41362 13.6167 3.19489 13.1022 3.13993 12.9554C3.13983 12.9548 3.13983 12.9542 3.13993 12.9535C3.05149 12.6984 2.86567 12.0858 2.89106 11.4925C2.93598 10.4456 3.30426 9.80302 3.40163 9.64205C3.6595 9.20308 3.9949 8.81032 4.3929 8.48126C4.74411 8.19732 5.1422 7.97139 5.57083 7.81276C6.03419 7.62651 6.53037 7.52668 7.03277 7.51862V9.25405C7.03277 9.25405 6.11375 8.96258 5.37832 9.47867C4.86413 9.86052 4.59127 10.233 4.51092 10.8983C4.50757 11.3879 4.63284 12.0807 5.32001 12.5428C5.40017 12.5936 5.47885 12.6387 5.55604 12.6781C5.67609 12.8342 5.8222 12.9701 5.98848 13.0806C6.65975 13.5055 7.22221 13.5351 7.94146 13.2592C8.42106 13.0747 8.78208 12.6589 8.94948 12.1981C9.05466 11.9104 9.05326 11.6208 9.05326 11.3213V2.80194H10.7272C10.7964 3.19529 10.9878 3.75522 11.4939 4.30981C11.6969 4.51922 11.9256 4.70435 12.175 4.86119C12.2486 4.9374 12.6253 5.31417 13.1088 5.54547C13.3588 5.66503 13.6223 5.75664 13.8941 5.81849Z" fill="#F6F5AE"/>
<path d="M2.47369 12.4224V12.4238L2.51546 12.537C2.51066 12.5238 2.49514 12.4837 2.47369 12.4224Z" fill="#F6F5AE"/>
<path d="M5.57066 7.81322C5.14203 7.97185 4.74395 8.19778 4.39274 8.48172C3.99461 8.81152 3.6593 9.2051 3.40174 9.64492C3.30437 9.80536 2.9361 10.4485 2.89118 11.4953C2.86579 12.0887 3.0516 12.7013 3.14004 12.9564C3.13995 12.957 3.13995 12.9577 3.14004 12.9583C3.19584 13.1037 3.41374 13.6182 3.77058 14.0546C3.87423 14.1811 3.98536 14.3018 4.10342 14.4161C3.72515 14.1654 3.3878 13.8623 3.10238 13.5166C2.74861 13.0853 2.53044 12.5762 2.47352 12.4259C2.47345 12.4248 2.47345 12.4237 2.47352 12.4227V12.4208C2.3848 12.166 2.19843 11.5531 2.22438 10.9589C2.2693 9.91205 2.63757 9.26948 2.73494 9.10851C2.99242 8.66865 3.32775 8.27505 3.72594 7.94532C4.07707 7.66127 4.47518 7.43534 4.90386 7.27681C5.17125 7.17048 5.44981 7.09204 5.73471 7.04284C6.16408 6.971 6.6026 6.96478 7.034 7.02439V7.51908C6.53114 7.52697 6.03446 7.6268 5.57066 7.81322Z" fill="#F6F5AE"/>
<path d="M10.7288 2.80248H9.0548V11.3221C9.0548 11.6216 9.0548 11.9104 8.95101 12.1989C8.78194 12.6594 8.42231 13.0752 7.943 13.2597C7.22346 13.5367 6.66101 13.506 5.99002 13.0811C5.82345 12.9712 5.67696 12.8357 5.55646 12.68C6.12812 12.9723 6.6398 12.9672 7.27368 12.7233C7.75272 12.5388 8.1129 12.123 8.28142 11.6623C8.38688 11.3745 8.38548 11.0849 8.38548 10.7857V2.26447H10.697C10.697 2.26447 10.671 2.47625 10.7288 2.80248ZM13.8943 5.34492V5.81902C13.6229 5.75708 13.3599 5.66547 13.1103 5.54601C12.6268 5.31471 12.2501 4.93794 12.1765 4.86173C12.262 4.91551 12.3506 4.96444 12.4421 5.00826C13.0299 5.28957 13.6089 5.37353 13.8943 5.34492Z" fill="#F6F5AE"/>
</svg>
