<svg width="20" height="20" viewBox="0 0 20 20" fill="none" xmlns="http://www.w3.org/2000/svg">
<path d="M5.28175 12.3705C5.37942 11.5618 5.71109 11.1091 6.3361 10.6449C7.23039 10.0163 8.34748 10.3719 8.34748 10.3719V8.26241C8.61906 8.25546 8.89075 8.27156 9.15936 8.31051V11.0252C9.15936 11.0252 8.04261 10.6696 7.14832 11.2986C6.52364 11.7624 6.19129 12.2155 6.09396 13.0242C6.09091 13.4633 6.17332 14.0373 6.55281 14.5336C6.45898 14.4855 6.36335 14.4307 6.2659 14.3692C5.42995 13.8078 5.27768 12.9657 5.28175 12.3705ZM13.7719 4.36199C13.1567 3.68786 12.924 3.00724 12.8399 2.52911H13.6138C13.6138 2.52911 13.4595 3.78277 14.5841 5.01563L14.5997 5.03221C14.2966 4.84156 14.0187 4.61652 13.7719 4.36199ZM17.4999 6.27319V8.93328C17.4999 8.93328 16.5124 8.8946 15.7816 8.70868C14.7611 8.44865 14.1052 8.04983 14.1052 8.04983C14.1052 8.04983 13.6522 7.76543 13.6155 7.7456V13.2387C13.6155 13.5445 13.5318 14.3084 13.2764 14.9454C12.943 15.7788 12.4286 16.3259 12.334 16.4377C12.334 16.4377 11.7083 17.1771 10.6044 17.6751C9.60939 18.1243 8.73579 18.1129 8.47466 18.1243C8.47466 18.1243 6.96451 18.1841 5.60562 17.301C5.31176 17.1063 5.03747 16.8859 4.78628 16.6425L4.79306 16.6473C6.15229 17.5305 7.6621 17.4706 7.6621 17.4706C7.92357 17.4593 8.79717 17.4706 9.79184 17.0214C10.8947 16.5235 11.5214 15.784 11.5214 15.784C11.615 15.6722 12.1318 15.1252 12.4638 14.2915C12.7185 13.6547 12.803 12.8906 12.803 12.5847V7.09228C12.8396 7.11243 13.2923 7.39684 13.2923 7.39684C13.2923 7.39684 13.9486 7.79598 14.969 8.05568C15.7002 8.2416 16.6874 8.28028 16.6874 8.28028V6.19583C17.0251 6.27157 17.3131 6.29204 17.4999 6.27319Z" fill="#EE1D52"/>
<path d="M16.6878 6.19583V8.27963C16.6878 8.27963 15.7006 8.24095 14.9694 8.05503C13.949 7.79501 13.2927 7.39619 13.2927 7.39619C13.2927 7.39619 12.84 7.11178 12.8034 7.09163V12.5854C12.8034 12.8912 12.7196 13.6554 12.4642 14.2921C12.1309 15.1258 11.6164 15.6729 11.5218 15.7847C11.5218 15.7847 10.8958 16.5241 9.79224 17.0221C8.79757 17.4713 7.92397 17.4599 7.6625 17.4713C7.6625 17.4713 6.1527 17.5311 4.79346 16.648L4.78668 16.6431C4.64317 16.5042 4.50809 16.3574 4.3821 16.2037C3.94835 15.6748 3.68247 15.0495 3.61566 14.871C3.61555 14.8703 3.61555 14.8695 3.61566 14.8687C3.50816 14.5587 3.2823 13.814 3.31316 13.0928C3.36776 11.8202 3.81541 11.0392 3.93377 10.8435C4.24722 10.3099 4.65492 9.83251 5.1387 9.43253C5.5656 9.08738 6.04949 8.81277 6.5705 8.61994C7.13374 8.39354 7.73687 8.2722 8.34755 8.26241V10.3719C8.34755 10.3719 7.23045 10.0176 6.3365 10.6449C5.71149 11.1091 5.37982 11.5618 5.28215 12.3705C5.27808 12.9657 5.43035 13.8078 6.26563 14.3695C6.36307 14.4312 6.4587 14.4861 6.55253 14.534C6.69845 14.7236 6.87606 14.8889 7.07818 15.0231C7.89413 15.5396 8.57782 15.5757 9.45209 15.2403C10.0351 15.016 10.4739 14.5106 10.6774 13.9505C10.8052 13.6008 10.8035 13.2488 10.8035 12.8847V2.52911H12.8383C12.9224 3.00724 13.1551 3.68786 13.7702 4.36199C14.017 4.61652 14.295 4.84156 14.5981 5.03221C14.6876 5.12484 15.1454 5.58282 15.7331 5.86397C16.037 6.0093 16.3573 6.12065 16.6878 6.19583Z" fill="black"/>
<path d="M2.80579 14.2231V14.2248L2.85628 14.3616C2.85048 14.3457 2.83172 14.2973 2.80579 14.2231Z" fill="#69C9D0"/>
<path d="M6.57051 8.61982C6.0495 8.81265 5.56561 9.08727 5.1387 9.43241C4.65477 9.83329 4.24718 10.3117 3.93411 10.8463C3.81576 11.0413 3.3681 11.823 3.3135 13.0956C3.28264 13.8168 3.5085 14.5615 3.61601 14.8715C3.61589 14.8723 3.61589 14.8731 3.61601 14.8738C3.68383 15.0506 3.94869 15.676 4.38244 16.2065C4.50844 16.3602 4.64352 16.507 4.78702 16.6459C4.32723 16.3411 3.91716 15.9726 3.57023 15.5525C3.14021 15.0282 2.87501 14.4093 2.80583 14.2267C2.80574 14.2254 2.80574 14.2241 2.80583 14.2228V14.2205C2.69798 13.9107 2.47144 13.1658 2.50298 12.4435C2.55758 11.171 3.00523 10.39 3.12359 10.1943C3.43657 9.65963 3.84417 9.1812 4.32818 8.78039C4.755 8.43513 5.23891 8.1605 5.75999 7.9678C6.08501 7.83856 6.42361 7.7432 6.76992 7.6834C7.29183 7.59608 7.82487 7.58851 8.34925 7.66097V8.26229C7.738 8.27187 7.13427 8.39322 6.57051 8.61982Z" fill="#69C9D0"/>
<path d="M12.84 2.52897H10.8052V12.8849C10.8052 13.2489 10.8052 13.6 10.679 13.9507C10.4735 14.5104 10.0364 15.0158 9.45374 15.2401C8.57912 15.5768 7.89544 15.5395 7.07983 15.023C6.87736 14.8894 6.69929 14.7246 6.55282 14.5354C7.2477 14.8907 7.86966 14.8845 8.64016 14.5881C9.22245 14.3638 9.66027 13.8584 9.8651 13.2984C9.99329 12.9486 9.9916 12.5966 9.9916 12.2329V1.875H12.8013C12.8013 1.875 12.7698 2.13243 12.84 2.52897ZM16.6877 5.6194V6.19569C16.3579 6.12039 16.0381 6.00904 15.7348 5.86383C15.1471 5.58267 14.6892 5.1247 14.5997 5.03206C14.7036 5.09744 14.8114 5.15691 14.9226 5.21018C15.6371 5.55212 16.3408 5.65418 16.6877 5.6194Z" fill="#69C9D0"/>
</svg>
