<svg width="15" height="13" viewBox="0 0 15 13" fill="none" xmlns="http://www.w3.org/2000/svg">
<path d="M5.04124 12.1194C3.37788 12.1194 1.82735 11.6356 0.522278 10.8009C1.63033 10.8726 3.58578 10.7008 4.80207 9.5407C2.97237 9.45674 2.14721 8.05344 2.03958 7.45374C2.19505 7.51371 2.93649 7.58568 3.35505 7.41776C1.2503 6.89003 0.927412 5.04295 0.999165 4.47924C1.39381 4.7551 2.0635 4.85105 2.32659 4.82706C0.365347 3.42376 1.07092 1.31282 1.41772 0.857052C2.82519 2.80697 4.93453 3.90212 7.54407 3.96304C7.49487 3.74724 7.46888 3.52258 7.46888 3.29183C7.46888 1.63581 8.80742 0.293335 10.4586 0.293335C11.3213 0.293335 12.0987 0.659817 12.6444 1.24602C13.2209 1.11093 14.0885 0.794692 14.5126 0.521221C14.2988 1.28884 13.6332 1.92918 13.2306 2.16652C13.234 2.17459 13.2273 2.15841 13.2306 2.16652C13.5843 2.11303 14.5412 1.92912 14.9192 1.67264C14.7323 2.10388 14.0266 2.82089 13.4475 3.2223C13.5553 7.97414 9.91962 12.1194 5.04124 12.1194Z" fill="#F6F5AE"/>
</svg>
