<svg width="54" height="54" viewBox="0 0 54 54" fill="none" xmlns="http://www.w3.org/2000/svg">
<path d="M7.7976 18.7781C10.2949 15.8444 13.0336 13.0408 16.0601 10.6548C18.1676 8.99304 18.8917 8.90948 20.0522 8.59384C20.3678 8.51028 20.6463 8.31532 20.9155 8.12036C32.2139 0.145625 46.613 5.79943 49.3981 19.8736C51.2455 29.213 46.483 38.4875 38.2947 42.2753C38.1647 42.3403 37.9698 42.3588 37.9048 42.4609C36.2801 45.0047 32.9751 45.9888 30.9606 46.4901C30.5521 46.6386 30.2364 47.0657 29.8651 47.3442C29.5773 47.5577 29.2895 47.7898 28.9646 47.9384C18.3161 52.8773 6.86923 46.2673 4.36262 35.331C4.00984 33.7899 2.45945 24.4876 7.7976 18.7781ZM29.9765 41.6811C33.7735 41.6625 36.2523 41.0405 38.4711 39.8244C49.1474 33.9663 50.7442 18.054 41.3491 10.2835C35.9645 5.83656 29.076 5.08458 23.023 9.34582C15.828 14.4055 13.2193 24.7754 17.2485 32.6109C20.145 38.2461 24.7404 41.3562 29.9765 41.6811ZM33.6064 44.0856C34.0706 43.9185 34.1356 43.7978 34.0613 43.7421C34.0613 43.7421 33.8664 43.7421 33.5414 43.7514C25.1861 44.3827 18.901 41.0591 15.1782 33.5671C11.539 26.2515 12.4209 19.0659 16.7193 12.1866C16.3758 12.3538 16.0973 12.558 15.8466 12.7901C10.0536 18.0354 8.34535 26.92 11.6875 34.5141C14.7697 41.5233 21.2405 45.6824 28.5189 45.1625C30.2271 45.0418 31.9075 44.457 33.6064 44.0856ZM9.06948 20.0036C9.07876 19.7343 8.8281 20.0685 8.79097 20.115C8.66099 20.2914 8.53102 20.477 8.41962 20.6627C6.8878 23.2436 5.93157 26.038 5.8016 29.0366C5.49524 35.8695 7.89044 41.5326 13.6742 45.3946C17.5177 47.9662 21.7882 48.4954 26.2537 47.1028C19.7272 46.4437 14.6397 43.4172 11.2047 37.8284C7.76975 32.2581 7.22201 26.2794 9.06948 20.0036Z" fill="black"/>
<path d="M37.0321 25.9545C38.3133 26.0009 38.731 26.6694 38.3133 27.8762C37.2735 30.847 34.3491 32.2953 31.369 31.2555C29.6051 30.6335 28.2218 29.5009 27.2656 27.8855C26.5322 26.6415 26.8571 25.9267 28.2961 25.8338C29.8001 25.7317 35.6303 25.8988 37.0321 25.9545ZM36.7443 27.4028C34.182 27.4028 31.6847 27.4028 29.1595 27.4028C31.7218 30.3829 35.5096 30.4386 36.7443 27.4028Z" fill="black"/>
<path d="M26.588 20.6904C26.5973 22.1387 25.2047 23.457 23.6822 23.4477C22.3546 23.4384 21.4262 22.2408 21.4169 20.9689C21.3984 19.697 22.6981 18.4437 24.1278 18.4066C25.5018 18.3602 26.588 19.3628 26.588 20.6904ZM23.8029 19.7713C23.1159 19.8827 22.9023 20.5326 22.958 21.0246C23.0323 21.7395 23.5708 21.9159 23.905 21.9251C24.2206 21.9344 24.8427 21.6188 24.9726 21.006C25.1397 20.384 24.7869 19.5392 23.8029 19.7713Z" fill="#CF9893"/>
<path d="M44.3289 21.0804C44.3103 22.4822 43.3169 23.5127 41.9894 23.5035C40.5597 23.4942 39.5292 22.3337 39.5756 20.7833C39.6127 19.4372 40.6154 18.3974 41.8594 18.4253C43.1498 18.4624 44.3474 19.7435 44.3289 21.0804ZM43.0477 21.0433C43.0477 20.3284 42.6671 19.8457 42.0729 19.8457C41.7109 19.8457 41.0981 20.1242 41.0981 20.8854C41.0981 22.213 42.0729 22.1388 42.0729 22.1388C42.5928 22.1202 43.0477 21.9067 43.0477 21.0433Z" fill="#81ADC8"/>
</svg>
