<svg width="18" height="18" viewBox="0 0 18 18" fill="none" xmlns="http://www.w3.org/2000/svg">
<path fill-rule="evenodd" clip-rule="evenodd" d="M3.7281 3.95731C2.70977 4.00776 1.89176 4.80513 1.82567 5.82257C1.76235 6.79735 1.69995 7.99679 1.69995 8.93791C1.69995 9.87903 1.76235 11.0785 1.82567 12.0533C1.89176 13.0707 2.70977 13.8681 3.7281 13.9185C5.20272 13.9916 7.31038 14.0797 8.89843 14.0797C10.4865 14.0797 12.5941 13.9916 14.0687 13.9185C15.0871 13.8681 15.9051 13.0707 15.9712 12.0533C16.0345 11.0785 16.0969 9.87903 16.0969 8.93791C16.0969 7.99679 16.0345 6.79735 15.9712 5.82257C15.9051 4.80513 15.0871 4.00776 14.0687 3.95731C12.5941 3.88425 10.4865 3.79614 8.89843 3.79614C7.31038 3.79614 5.20272 3.88425 3.7281 3.95731ZM11.4692 8.93779L7.35583 10.9945V6.88109L11.4692 8.93779Z" fill="#F6F5AE"/>
</svg>
